<?xml version="1.0" standalone="no"?>
<!DOCTYPE svg PUBLIC "-//W3C//DTD SVG 1.1//EN" "http://www.w3.org/Graphics/SVG/1.1/DTD/svg11.dtd" >
<svg xmlns="http://www.w3.org/2000/svg" xmlns:xlink="http://www.w3.org/1999/xlink" version="1.1">
<metadata>
Created by FontForge 20170731 at Thu Sep  5 13:13:46 2013
 By Aleksey,,,
Copyright (c) 2013 by Michael Chereda. All rights reserved.
</metadata>
<defs>
<font id="BravoRG" horiz-adv-x="643" >
  <font-face 
    font-family="BravoRG"
    font-weight="400"
    font-stretch="normal"
    units-per-em="2048"
    panose-1="2 0 5 6 0 0 0 2 0 4"
    ascent="1638"
    descent="-410"
    x-height="1106"
    cap-height="1434"
    bbox="-68 -410 1188 1749"
    underline-thickness="102"
    underline-position="-306"
    unicode-range="U+000D-E000"
  />
<missing-glyph horiz-adv-x="748" 
d="M68 0v1365h544v-1365h-544zM136 68h408v1229h-408v-1229z" />
    <glyph glyph-name=".notdef" horiz-adv-x="748" 
d="M68 0v1365h544v-1365h-544zM136 68h408v1229h-408v-1229z" />
    <glyph glyph-name="glyph1" horiz-adv-x="2048" 
 />
    <glyph glyph-name="glyph1" horiz-adv-x="2048" 
 />
    <glyph glyph-name="uni000D" unicode="&#xd;" horiz-adv-x="2048" 
 />
    <glyph glyph-name="space" unicode=" " horiz-adv-x="368" 
 />
    <glyph glyph-name="exclam" unicode="!" horiz-adv-x="247" 
d="M61 0v145h125v-145h-125zM61 274v1160h125v-1160h-125z" />
    <glyph glyph-name="quotedbl" unicode="&#x22;" horiz-adv-x="430" 
d="M61 1124v330h103v-330h-103zM266 1124v330h103v-330h-103z" />
    <glyph glyph-name="numbersign" unicode="#" horiz-adv-x="817" 
d="M61 479v105h140l67 331h-114v103h135l86 416h106l-86 -416h162l86 416h107l-86 -416h92v-103h-115l-68 -331h113v-105h-133l-98 -479h-107l98 479h-161l-99 -479h-106l98 479h-117zM305 584h162l70 331h-164z" />
    <glyph glyph-name="dollar" unicode="$" horiz-adv-x="536" 
d="M61 213v242h125v-242q0 -23 18.5 -36t43.5 -13h41q25 0 43 13t18 36v139q0 57 -49 162l-190 412q-50 102 -50 170v104q0 64 44.5 113.5t109.5 58.5v164h104v-164q65 -9 110.5 -58t45.5 -114v-178h-125v178q0 23 -18.5 37t-42.5 14h-41q-24 0 -43 -14t-19 -37v-113
q0 -15 5 -33t10.5 -30.5t16.5 -35t15 -32.5l193 -419q49 -100 49 -168v-156q0 -64 -45.5 -112.5t-110.5 -59.5v-164h-104v164q-66 11 -110 59t-44 113z" />
    <glyph glyph-name="percent" unicode="%" horiz-adv-x="886" 
d="M61 485l707 539l57 -78l-706 -540zM115 983v274q0 76 54.5 126.5t131.5 50.5h8q79 0 133 -50.5t54 -126.5v-274q0 -76 -54 -126t-133 -50h-8q-78 0 -132 50t-54 126zM221 983q0 -31 27.5 -51.5t56.5 -20.5q32 0 58 19.5t26 52.5v274q0 33 -26 53.5t-58 20.5t-58 -18.5
t-26 -55.5v-274zM389 176v275q0 76 54 126t132 50h9q79 0 132.5 -50t53.5 -126v-275q0 -76 -53.5 -126t-132.5 -50h-9q-78 0 -132 50t-54 126zM496 176q0 -31 27.5 -51.5t56.5 -20.5q32 0 58 19.5t26 52.5v275q0 33 -26 53t-58 20t-58 -18t-26 -55v-275z" />
    <glyph glyph-name="ampersand" unicode="&#x26;" horiz-adv-x="696" 
d="M61 188v426q0 54 29 98.5t74 67.5q-49 28 -75 70t-26 117v280q0 77 56 132t131 55h227v-125h-227q-24 0 -43 -20.5t-19 -43.5v-280q0 -57 28 -93t81 -36h338v-125h-107v-711h-280q-77 0 -132 56.5t-55 131.5zM186 190q0 -26 19 -44.5t43 -18.5h155v584h-118
q-99 0 -99 -119v-402z" />
    <glyph glyph-name="quotesingle" unicode="'" horiz-adv-x="225" 
d="M61 1124v330h103v-330h-103z" />
    <glyph glyph-name="parenleft" unicode="(" horiz-adv-x="409" 
d="M61 621q0 435 179 915h114q-78 -251 -119.5 -471t-41.5 -444q0 -438 161 -936h-116q-177 475 -177 936z" />
    <glyph glyph-name="parenright" unicode=")" horiz-adv-x="409" 
d="M61 -315q162 501 162 936q0 223 -42 442.5t-120 472.5h115q178 -477 178 -915q0 -464 -176 -936h-117z" />
    <glyph glyph-name="asterisk" unicode="*" horiz-adv-x="544" 
d="M61 1161l148 60l-148 61l54 92l125 -98l-23 158h109l-23 -158l125 98l55 -92l-149 -61l149 -60l-55 -92l-125 98l23 -157h-109l23 157l-125 -98z" />
    <glyph glyph-name="plus" unicode="+" horiz-adv-x="796" 
d="M61 717v104h285v285h105v-285h284v-104h-284v-285h-105v285h-285z" />
    <glyph glyph-name="comma" unicode="," horiz-adv-x="268" 
d="M61 0v145h146v-145l-98 -221h-48l54 221h-54z" />
    <glyph glyph-name="hyphen" unicode="-" horiz-adv-x="526" 
d="M61 549v110h404v-110h-404z" />
    <glyph glyph-name="period" unicode="." horiz-adv-x="268" 
d="M61 0v145h146v-145h-146z" />
    <glyph glyph-name="slash" unicode="/" horiz-adv-x="716" 
d="M20 -315l558 1851h129l-557 -1851h-130z" />
    <glyph glyph-name="zero" unicode="0" horiz-adv-x="608" 
d="M82 186v1061q0 76 56 131.5t130 55.5h72q76 0 131 -56.5t55 -130.5v-1061q0 -80 -55.5 -133t-130.5 -53h-72q-78 0 -132 54t-54 132zM217 197q0 -26 19 -44t43 -18h51q26 0 43.5 19t17.5 43v618l-174 -321v-297zM217 719l174 319v199q0 26 -18.5 43.5t-42.5 17.5h-51
q-26 0 -44 -18.5t-18 -42.5v-518z" />
    <glyph glyph-name="one" unicode="1" horiz-adv-x="583" 
d="M82 1298v136h280v-1299h140v-135h-412v135h139v1163h-147z" />
    <glyph glyph-name="two" unicode="2" horiz-adv-x="618" 
d="M82 1081v166q0 76 56 131.5t130 55.5h82q77 0 132 -56t55 -131v-166q0 -125 -33 -192l-225 -475q-52 -110 -52 -215v-64h299v-135h-434v199q0 139 64 270l225 471q22 50 22 141v156q0 25 -19.5 43t-43.5 18h-61q-26 0 -44 -18.5t-18 -42.5v-156h-135z" />
    <glyph glyph-name="three" unicode="3" horiz-adv-x="624" 
d="M82 186v226h135v-215q0 -26 18.5 -44t43.5 -18h67q26 0 44 18t18 44v526q0 27 -19.5 46t-46.5 19q-42 0 -67 -17t-46 -56l-114 49l278 534h-311v136h440v-177l-196 -362q22 18 55 18q75 0 118.5 -48t43.5 -126v-553q0 -76 -55 -131t-132 -55h-88q-76 0 -131 55t-55 131z
" />
    <glyph glyph-name="four" unicode="4" horiz-adv-x="692" 
d="M72 287v125l247 1022h193v-1022h119v-125h-119v-287h-135v287h-305zM209 412h168v379l26 473z" />
    <glyph glyph-name="five" unicode="5" horiz-adv-x="630" 
d="M82 186v226h135v-215q0 -25 19 -43.5t45 -18.5h71q25 0 43.5 18t18.5 44v520q0 30 -24 50.5t-54 20.5q-117 0 -117 -176h-137v822h436v-136h-301v-419q51 45 135 45q76 0 136.5 -56t60.5 -131v-551q0 -76 -55 -131t-132 -55h-92q-78 0 -133 54.5t-55 131.5z" />
    <glyph glyph-name="six" unicode="6" horiz-adv-x="628" 
d="M82 186v1061q0 77 55 132t131 55h92q76 0 131.5 -55t55.5 -132v-166h-133v156q0 25 -19 43t-45 18h-71q-25 0 -43.5 -18t-18.5 -43v-375q58 51 133 51q84 0 140.5 -54.5t56.5 -131.5v-541q0 -76 -55 -131t-132 -55h-92q-76 0 -131 55t-55 131zM217 197q0 -25 18.5 -43.5
t43.5 -18.5h71q26 0 45 18t19 44v520q0 26 -19.5 43.5t-44.5 17.5q-133 0 -133 -176v-405z" />
    <glyph glyph-name="seven" unicode="7" horiz-adv-x="614" 
d="M61 1298v136h492v-158q-42 -89 -74 -179.5t-53 -162.5t-36 -174.5t-23 -165t-13 -188t-6.5 -188t-3.5 -218.5h-135q2 163 4 254t9 220t20.5 215.5t36 193.5t57 205t82.5 202v8h-357z" />
    <glyph glyph-name="eight" unicode="8" horiz-adv-x="614" 
d="M82 186v512q0 58 30.5 96.5t75.5 55.5q-38 13 -67 48t-29 81v268q0 77 55.5 132t133.5 55h55q76 0 131 -55t55 -132v-268q0 -50 -29.5 -84t-64.5 -45q104 -46 104 -152v-512q0 -76 -55 -131t-131 -55h-76q-78 0 -133 54.5t-55 131.5zM217 197q0 -26 19 -44t45 -18h55
q26 0 43.5 18.5t17.5 43.5v518q0 26 -17.5 44.5t-43.5 18.5h-55q-26 0 -45 -18.5t-19 -44.5v-518zM227 973q0 -26 18.5 -44t43.5 -18h37q26 0 43.5 18t17.5 44v264q0 25 -17.5 43t-43.5 18h-35q-26 0 -45 -18t-19 -43v-264z" />
    <glyph glyph-name="nine" unicode="9" horiz-adv-x="628" 
d="M82 186v226h133v-215q0 -25 19 -43.5t45 -18.5h69q26 0 45 18.5t19 43.5v450q-58 -55 -133 -55q-77 0 -137 56t-60 130v469q0 77 55 132t131 55h90q77 0 133 -55.5t56 -131.5v-1061q0 -76 -56 -131t-133 -55h-90q-78 0 -132 54.5t-54 131.5zM215 788q0 -25 19 -43t45 -18
q133 0 133 176v334q0 25 -19 43t-45 18h-69q-26 0 -45 -18t-19 -43v-449z" />
    <glyph glyph-name="colon" unicode=":" horiz-adv-x="268" 
d="M61 0v145h146v-145h-146zM61 920v145h146v-145h-146z" />
    <glyph glyph-name="semicolon" unicode=";" horiz-adv-x="268" 
d="M61 0v145h146v-145l-98 -221h-48l54 221h-54zM61 920v145h146v-145h-146z" />
    <glyph glyph-name="less" unicode="&#x3c;" horiz-adv-x="1058" 
d="M61 565v80l936 461v-135l-747 -365l747 -366v-134z" />
    <glyph glyph-name="equal" unicode="=" horiz-adv-x="931" 
d="M61 483v123h809v-123h-809zM61 881v125h809v-125h-809z" />
    <glyph glyph-name="greater" unicode="&#x3e;" horiz-adv-x="1058" 
d="M61 106v134l748 366l-748 365v135l936 -461v-80z" />
    <glyph glyph-name="question" unicode="?" horiz-adv-x="536" 
d="M61 1083v164q0 77 55.5 132t131.5 55h41q78 0 132 -55t54 -132v-164q0 -70 -22.5 -159t-49 -162t-49 -163t-22.5 -161v-164h-125v164q0 75 22.5 167.5t49 165.5t49 160t22.5 152v164q0 26 -17.5 44t-43.5 18h-41q-26 0 -44 -18t-18 -44v-164h-125zM207 0v145h125v-145
h-125z" />
    <glyph glyph-name="at" unicode="@" horiz-adv-x="1101" 
d="M72 188v719q0 155 112 266t267 111h200q157 0 268 -111t111 -266v-614q0 -84 -62 -134t-141 -50q-121 0 -182 92q-81 -39 -149 -39q-57 0 -92 33t-35 86v208q0 56 40 95t93 39h135v178q0 20 -12.5 32.5t-30.5 12.5h-78q-20 0 -31.5 -12.5t-11.5 -32.5v-74h-98v84
q0 55 39.5 94t95.5 39h94q55 0 93 -40t38 -93v-547q19 -51 94 -51q34 0 56 20.5t22 59.5v594q0 114 -81 194t-195 80h-160q-114 0 -195 -80t-81 -194v-678q0 -114 81 -195.5t195 -81.5h201v-122h-221q-157 0 -268 110.5t-111 267.5zM467 299q0 -18 14.5 -30.5t32.5 -12.5
q6 0 12.5 0.5t13.5 2.5t12 3t14 4.5t13 5t14.5 6.5t13.5 6.5l15 7.5t15 7v227h-127q-17 0 -30 -14t-13 -31v-182z" />
    <glyph glyph-name="A" unicode="A" horiz-adv-x="714" 
d="M41 0l195 1434h243l195 -1434h-135l-62 422h-239l-60 -422h-137zM252 547h211l-101 753h-10z" />
    <glyph glyph-name="B" unicode="B" horiz-adv-x="679" 
d="M82 0v1434h324q79 0 135.5 -56.5t56.5 -136.5v-272q0 -59 -30.5 -116.5t-86.5 -80.5q57 -21 87 -71t30 -107v-401q0 -80 -56.5 -136.5t-135.5 -56.5h-324zM217 135h189q25 0 41 16.5t16 41.5v415q0 64 -27.5 83.5t-91.5 19.5h-127v-576zM217 836h141q105 0 105 139v266
q0 24 -16.5 40.5t-40.5 16.5h-189v-462z" />
    <glyph glyph-name="C" unicode="C" horiz-adv-x="636" 
d="M82 193v1048q0 79 57 136t135 57h88q80 0 136.5 -57t56.5 -136v-160h-135v160q0 23 -17 40t-41 17h-88q-23 0 -40 -17t-17 -40v-1048q0 -25 16.5 -41.5t40.5 -16.5h88q24 0 41 17t17 41v219h135v-219q0 -79 -56.5 -136t-136.5 -57h-88q-78 0 -135 57t-57 136z" />
    <glyph glyph-name="D" unicode="D" horiz-adv-x="673" 
d="M82 0v1434h319q78 0 134.5 -57t56.5 -136v-1048q0 -79 -56.5 -136t-134.5 -57h-319zM217 135h184q23 0 39.5 16.5t16.5 41.5v1048q0 23 -16.5 40t-39.5 17h-184v-1163z" />
    <glyph glyph-name="E" unicode="E" horiz-adv-x="534" 
d="M82 0v1434h391v-136h-256v-462h223v-125h-223v-576h254v-135h-389z" />
    <glyph glyph-name="F" unicode="F" horiz-adv-x="493" 
d="M82 0v1434h391v-136h-256v-462h225v-125h-225v-711h-135z" />
    <glyph glyph-name="G" unicode="G" horiz-adv-x="636" 
d="M82 193v1048q0 78 57 135.5t135 57.5h88q80 0 136.5 -57t56.5 -136v-160h-135v160q0 23 -17 40t-41 17h-88q-23 0 -40 -17t-17 -40v-1048q0 -25 16.5 -41.5t40.5 -16.5h88q24 0 41 17t17 41v393h-88v125h223v-518q0 -79 -56.5 -136t-136.5 -57h-88q-79 0 -135.5 56.5
t-56.5 136.5z" />
    <glyph glyph-name="H" unicode="H" horiz-adv-x="686" 
d="M82 0v1434h135v-598h252v598h135v-1434h-135v711h-252v-711h-135z" />
    <glyph glyph-name="I" unicode="I" horiz-adv-x="532" 
d="M82 0v135h117v1163h-117v136h369v-136h-117v-1163h117v-135h-369z" />
    <glyph glyph-name="J" unicode="J" horiz-adv-x="606" 
d="M51 193v219h135v-219q0 -24 17 -41t41 -17h88q25 0 41 16.5t16 41.5v1105h-192v136h327v-1241q0 -80 -56.5 -136.5t-135.5 -56.5h-88q-78 0 -135.5 57t-57.5 136z" />
    <glyph glyph-name="K" unicode="K" horiz-adv-x="622" 
d="M82 0v1434h135v-598h51l185 598h139l-211 -639l209 -795h-139l-187 711h-47v-711h-135z" />
    <glyph glyph-name="L" unicode="L" horiz-adv-x="532" 
d="M82 0v1434h135v-1299h254v-135h-389z" />
    <glyph glyph-name="M" unicode="M" horiz-adv-x="974" 
d="M82 0v1434h192l215 -1145l209 1145h195v-1434h-135v610l43 559l-15 2l-225 -1171h-143l-223 1171l-15 -2l37 -559v-610h-135z" />
    <glyph glyph-name="N" unicode="N" horiz-adv-x="741" 
d="M82 0v1434h184l283 -1166l14 4l-39 510v652h135v-1434h-182l-284 1186l-15 -4l39 -531v-651h-135z" />
    <glyph glyph-name="O" unicode="O" horiz-adv-x="684" 
d="M82 193v1048q0 79 57 136t135 57h136q79 0 135.5 -56.5t56.5 -136.5v-1048q0 -80 -56.5 -136.5t-135.5 -56.5h-136q-78 0 -135 57t-57 136zM217 193q0 -25 16.5 -41.5t40.5 -16.5h136q24 0 40.5 16.5t16.5 41.5v1048q0 23 -17 40t-40 17h-136q-23 0 -40 -17t-17 -40
v-1048z" />
    <glyph glyph-name="P" unicode="P" horiz-adv-x="645" 
d="M82 0v1434h299q78 0 135 -57t57 -136v-467q0 -80 -50 -135t-130 -55h-176v-584h-135zM217 711h156q29 0 47 22t18 51v457q0 23 -17 40t-40 17h-164v-587z" />
    <glyph glyph-name="Q" unicode="Q" horiz-adv-x="681" 
d="M82 193v1048q0 80 56.5 136.5t135.5 56.5h134q79 0 135.5 -56.5t56.5 -136.5v-1048q0 -80 -56.5 -136.5t-135.5 -56.5h-134q-79 0 -135.5 56.5t-56.5 136.5zM160 -55q78 0 131.5 -19.5t124.5 -66.5q52 -33 89.5 -47.5t90.5 -14.5v-114q-78 0 -131.5 19.5t-124.5 66.5
q-49 33 -87.5 47t-92.5 14v115zM217 193q0 -25 16.5 -41.5t40.5 -16.5h134q25 0 41 16.5t16 41.5v1048q0 24 -16.5 40.5t-40.5 16.5h-134q-23 0 -40 -17t-17 -40v-1048z" />
    <glyph glyph-name="R" unicode="R" horiz-adv-x="661" 
d="M82 0v1434h305q78 0 135.5 -57.5t57.5 -135.5v-283q0 -66 -28.5 -111t-92.5 -75q59 -13 90 -54.5t31 -99.5v-618h-136v608q0 103 -102 103h-125v-711h-135zM217 836h105q122 0 122 131v274q0 23 -17 40t-40 17h-170v-462z" />
    <glyph glyph-name="S" unicode="S" 
d="M82 193v219h135v-219q0 -25 16.5 -41.5t40.5 -16.5h95q23 0 40 16.5t17 41.5v243q0 86 -43 137l-233 285q-68 85 -68 217v166q0 78 57 135.5t135 57.5h95q78 0 135 -57t57 -136v-160h-135v160q0 23 -17 40t-40 17h-95q-23 0 -40 -17t-17 -40v-166q0 -84 43 -137l232 -285
q69 -83 69 -217v-243q0 -79 -57 -136t-135 -57h-95q-79 0 -135.5 56.5t-56.5 136.5z" />
    <glyph glyph-name="T" unicode="T" horiz-adv-x="569" 
d="M51 1298v136h467v-136h-166v-1298h-135v1298h-166z" />
    <glyph glyph-name="U" unicode="U" horiz-adv-x="686" 
d="M82 193v1241h135v-1241q0 -25 16 -41.5t41 -16.5h138q24 0 40.5 16.5t16.5 41.5v1241h135v-1241q0 -79 -57 -136t-135 -57h-138q-79 0 -135.5 56.5t-56.5 136.5z" />
    <glyph glyph-name="V" unicode="V" horiz-adv-x="706" 
d="M31 1434h139l182 -1254l185 1254h139l-223 -1434h-203z" />
    <glyph glyph-name="W" unicode="W" horiz-adv-x="1097" 
d="M41 1434h135l168 -1252h8l72 631l57 338l-39 283h215l-41 -283l58 -338l71 -631h9l166 1252h137l-209 -1434h-197l-98 842h-8l-101 -842h-196z" />
    <glyph glyph-name="X" unicode="X" horiz-adv-x="733" 
d="M31 0l219 768l-197 666h140l174 -582l174 582h141l-201 -666l221 -768h-139l-196 684l-195 -684h-141z" />
    <glyph glyph-name="Y" unicode="Y" horiz-adv-x="641" 
d="M20 1434h140l157 -572l164 572h140l-236 -779v-520h117v-135h-369v135h117v518z" />
    <glyph glyph-name="Z" unicode="Z" horiz-adv-x="589" 
d="M41 0l328 1298h-283v136h463l-328 -1299h285v-135h-465z" />
    <glyph glyph-name="bracketleft" unicode="[" horiz-adv-x="378" 
d="M61 -315v1749h256v-125h-129v-1497h129v-127h-256z" />
    <glyph glyph-name="backslash" unicode="\" horiz-adv-x="716" 
d="M20 1536h130l557 -1851h-129z" />
    <glyph glyph-name="bracketright" unicode="]" horiz-adv-x="378" 
d="M61 -188h129v1497h-129v125h256v-1749h-256v127z" />
    <glyph glyph-name="underscore" unicode="_" horiz-adv-x="1249" 
d="M61 -311h1127v-99h-1127v99z" />
    <glyph glyph-name="grave" unicode="`" horiz-adv-x="428" 
d="M92 1356l62 78l182 -136l-62 -77z" />
    <glyph glyph-name="a" unicode="a" horiz-adv-x="669" 
d="M72 162v303q0 78 57 134t133 56h207v258q0 27 -19 45.5t-44 18.5h-123q-26 0 -45 -19q-19 -16 -19 -45v-106h-127v108q0 79 57 135t136 56h123q78 0 134 -57.5t56 -133.5v-915h-106l-21 49l-145 -47q-46 -12 -74 -12q-81 0 -130.5 48t-49.5 124zM199 178q0 -27 18.5 -44
t44.5 -17q15 0 23 2l184 63v346h-207q-24 0 -43.5 -19.5t-19.5 -43.5v-287z" />
    <glyph glyph-name="b" unicode="b" horiz-adv-x="669" 
d="M72 0v1434h127v-375l145 45q35 12 70 12q79 0 131.5 -49.5t52.5 -128.5v-745q0 -79 -55.5 -136t-134.5 -57h-336zM199 127h209q26 0 44.5 18.5t18.5 44.5v742q0 27 -15.5 41t-41.5 14q-18 0 -33 -6l-182 -61v-793z" />
    <glyph glyph-name="c" unicode="c" horiz-adv-x="624" 
d="M72 190v723q0 79 56 136t134 57h100q79 0 135 -56.5t56 -136.5v-106h-127v106q0 26 -19 45t-45 19h-100q-26 0 -44.5 -19t-18.5 -45v-723q0 -26 18.5 -44.5t44.5 -18.5h100q26 0 45 18.5t19 44.5v175h127v-175q0 -78 -56 -134t-135 -56h-100q-78 0 -134 56t-56 134z" />
    <glyph glyph-name="d" unicode="d" horiz-adv-x="669" 
d="M72 170v768q0 78 54.5 128t131.5 50q37 0 68 -10l145 -47v375h127v-1434h-106l-21 49l-145 -49q-31 -10 -70 -10q-76 0 -130 52t-54 128zM199 170q0 -24 16 -38.5t41 -14.5q11 0 27 4l188 61v740l-188 63q-16 4 -25 4q-26 0 -42.5 -14.5t-16.5 -40.5v-764z" />
    <glyph glyph-name="e" unicode="e" horiz-adv-x="649" 
d="M72 193v722q0 79 56.5 135t133.5 56h125q79 0 135 -57t56 -134v-387h-379v-338q0 -27 19 -45t44 -18h125q27 0 45.5 19t18.5 44v175h127v-172q0 -79 -57 -136t-134 -57h-125q-78 0 -134 58.5t-56 134.5zM199 655h252v258q0 27 -19.5 45.5t-44.5 18.5h-125q-27 0 -45 -19
t-18 -45v-258z" />
    <glyph glyph-name="f" unicode="f" horiz-adv-x="458" 
d="M31 977v129h98v137q0 79 57 135t133 56h109v-127h-109q-27 0 -45 -19t-18 -45v-137h152v-129h-152v-977h-127v977h-98z" />
    <glyph glyph-name="g" unicode="g" 
d="M72 170v770q0 74 54 125t130 51q41 0 70 -10l118 -47l21 47h106v-1233q0 -79 -55.5 -134.5t-134.5 -55.5h-246v127h246q27 0 45 18t18 45v176l-118 -49q-29 -10 -68 -10q-77 0 -131.5 52t-54.5 128zM199 172q0 -26 16 -40.5t41 -14.5q21 0 29 4l159 61v740l-161 63
q-12 6 -29 6q-26 0 -40.5 -15t-14.5 -40v-764z" />
    <glyph glyph-name="h" unicode="h" 
d="M72 0v1434h127v-375l118 47q33 10 66 10q77 0 132.5 -56t55.5 -134v-926h-127v934q0 25 -17.5 40t-43.5 15q-9 0 -25 -4l-159 -63v-922h-127z" />
    <glyph glyph-name="i" unicode="i" horiz-adv-x="290" 
d="M82 0v1106h127v-1106h-127zM84 1288v146h125v-146h-125z" />
    <glyph glyph-name="j" unicode="j" horiz-adv-x="290" 
d="M-68 -80v-127h86q76 0 133.5 56.5t57.5 134.5v1122h-127v-1122q0 -27 -17.5 -45.5t-46.5 -18.5h-86zM84 1288v146h125v-146h-125z" />
    <glyph glyph-name="k" unicode="k" horiz-adv-x="628" 
d="M72 0v1434h127v-779h57l205 451h137l-231 -516l229 -590h-135l-209 528h-53v-528h-127z" />
    <glyph glyph-name="l" unicode="l" horiz-adv-x="290" 
d="M82 0v1434h127v-1434h-127z" />
    <glyph glyph-name="m" unicode="m" horiz-adv-x="944" 
d="M72 0v1106h106l21 -47l67 39q35 18 86 18q99 0 148 -67l104 49q37 18 86 18q79 0 130.5 -51t51.5 -129v-936h-127v936q0 53 -53 53q-19 0 -35 -8l-122 -59v-922h-127v934q0 26 -15 40.5t-41 14.5q-17 0 -33 -8l-120 -59v-922h-127z" />
    <glyph glyph-name="n" unicode="n" 
d="M72 0v1106h106l21 -47l118 47q33 10 66 10q77 0 132.5 -56t55.5 -134v-926h-127v934q0 25 -17.5 40t-43.5 15q-9 0 -25 -4l-159 -63v-922h-127z" />
    <glyph glyph-name="o" unicode="o" horiz-adv-x="671" 
d="M72 190v723q0 79 55.5 136t134.5 57h148q78 0 134 -57t56 -136v-723q0 -78 -55.5 -134t-134.5 -56h-148q-79 0 -134.5 56t-55.5 134zM199 190q0 -26 18.5 -44.5t44.5 -18.5h148q26 0 44.5 18.5t18.5 44.5v723q0 26 -18.5 45t-44.5 19h-148q-26 0 -44.5 -19t-18.5 -45
v-723z" />
    <glyph glyph-name="p" unicode="p" 
d="M72 -317v1423h106l21 -47l120 45q30 12 66 12q76 0 131 -51.5t55 -128.5v-766q0 -79 -52 -129.5t-136 -50.5q-34 0 -64 12l-120 45v-364h-127zM199 182l161 -59q12 -4 21 -4q26 0 44.5 15t18.5 40v752q0 28 -16.5 44.5t-46.5 16.5q-15 0 -21 -2l-161 -63v-740z" />
    <glyph glyph-name="q" unicode="q" 
d="M72 170v743q0 79 56.5 136t133.5 57h309v-1423h-127v366l-120 -49q-29 -10 -70 -10q-79 0 -130.5 51t-51.5 129zM199 176q0 -27 14.5 -43t40.5 -16q13 0 29 4l161 61v795h-182q-27 0 -45 -19t-18 -45v-737z" />
    <glyph glyph-name="r" unicode="r" horiz-adv-x="442" 
d="M72 0v1106h106l21 -47q75 57 202 57v-127q-46 -1 -80.5 -11.5t-56.5 -32t-35.5 -44.5t-19.5 -59.5t-8 -67t-2 -76.5v-698h-127z" />
    <glyph glyph-name="s" unicode="s" horiz-adv-x="630" 
d="M72 190v175h127v-175q0 -26 18.5 -44.5t44.5 -18.5h105q28 0 46.5 18.5t18.5 44.5v86q0 54 -43 97l-233 231q-47 45 -65.5 89.5t-18.5 109.5v110q0 79 56 136t134 57h105q79 0 135.5 -56.5t56.5 -136.5v-106h-127v106q0 27 -19 45.5t-46 18.5h-105q-26 0 -44.5 -19
t-18.5 -45v-100q0 -64 49 -113l239 -235q41 -41 56.5 -80t15.5 -98v-97q0 -78 -56.5 -134t-135.5 -56h-105q-78 0 -134 56t-56 134z" />
    <glyph glyph-name="t" unicode="t" horiz-adv-x="436" 
d="M31 977v129h112v170h129v-170h134v-129h-134v-787q0 -27 19 -45t45 -18h70v-127h-72q-78 0 -133.5 58.5t-55.5 134.5v784h-114z" />
    <glyph glyph-name="u" unicode="u" horiz-adv-x="638" 
d="M72 172v934h127v-934q0 -27 17.5 -41t45.5 -14q12 0 27 6l151 61v922h127v-1106h-127v49l-104 -45q-38 -14 -74 -14q-81 0 -135.5 49t-54.5 133z" />
    <glyph glyph-name="v" unicode="v" horiz-adv-x="661" 
d="M20 1106h130l169 -979h23l170 979h129l-201 -1106h-219z" />
    <glyph glyph-name="w" unicode="w" horiz-adv-x="1038" 
d="M20 1106h130l161 -979h17l125 682l-58 297h244l-55 -297l125 -682h18l160 979h131l-195 -1106h-215l-90 528l-90 -528h-215z" />
    <glyph glyph-name="x" unicode="x" horiz-adv-x="692" 
d="M20 0l209 592l-186 514h137l152 -451h26l152 451h137l-186 -514l211 -592h-135l-177 528h-30l-174 -528h-136z" />
    <glyph glyph-name="y" unicode="y" horiz-adv-x="604" 
d="M20 1106h130l145 -979h18l131 979h129l-196 -1423h-129l45 317h-109z" />
    <glyph glyph-name="z" unicode="z" horiz-adv-x="563" 
d="M41 0l303 977h-278v129h456l-303 -979h279v-127h-457z" />
    <glyph glyph-name="braceleft" unicode="{" horiz-adv-x="436" 
d="M61 559v125h54q22 0 36.5 14.5t14.5 36.5v543q0 63 46.5 109.5t109.5 46.5h53v-125h-33q-20 0 -35.5 -16t-15.5 -36v-507q0 -107 -78 -129q38 -9 58 -40t20 -79v-641q0 -20 15.5 -35.5t35.5 -15.5h33v-125h-53q-63 0 -109.5 46t-46.5 109v668q0 22 -14.5 36.5t-36.5 14.5
h-54z" />
    <glyph glyph-name="bar" unicode="|" horiz-adv-x="233" 
d="M61 -315v1749h115v-1749h-115z" />
    <glyph glyph-name="braceright" unicode="}" horiz-adv-x="436" 
d="M61 -190h33q20 0 35.5 15.5t15.5 35.5v641q0 48 20 79t58 40q-78 22 -78 129v507q0 20 -15.5 36t-35.5 16h-33v125h54q63 0 109 -46.5t46 -109.5v-543q0 -22 15 -36.5t37 -14.5h53v-125h-53q-22 0 -37 -14.5t-15 -36.5v-668q0 -63 -46 -109t-109 -46h-54v125z" />
    <glyph glyph-name="asciitilde" unicode="~" horiz-adv-x="944" 
d="M61 573q97 132 238 132q50 0 98 -17.5t78.5 -38t70 -38t75.5 -17.5q48 0 95.5 29.5t84.5 74.5l82 -65q-49 -63 -120 -103.5t-142 -40.5q-47 0 -95 17.5t-81 39t-73 39t-73 17.5q-49 0 -85.5 -23.5t-70.5 -68.5z" />
    <glyph glyph-name="uni00A0" unicode="&#xa0;" horiz-adv-x="368" 
 />
    <glyph glyph-name="cent" unicode="&#xa2;" horiz-adv-x="585" 
d="M61 410v612q0 73 53.5 128t125.5 58v226h104v-226q74 -3 127 -58t53 -128v-119h-125v119q0 26 -18.5 44.5t-42.5 18.5h-90q-26 0 -44 -19.5t-18 -43.5v-612q0 -27 18.5 -44.5t43.5 -17.5h90q27 0 44 18t17 44v125h125v-125q0 -75 -54 -130t-126 -57v-223h-104v223
q-74 3 -126.5 58.5t-52.5 128.5z" />
    <glyph glyph-name="sterling" unicode="&#xa3;" horiz-adv-x="638" 
d="M61 0v125h119v534h-119v115h119v473q0 77 54.5 132t132.5 55h24q77 0 132 -55t55 -132v-141h-123v141q0 26 -19 45t-45 19h-24q-26 0 -44 -19t-18 -45v-473h182v-115h-182v-534h273v-125h-517z" />
    <glyph glyph-name="yen" unicode="&#xa5;" horiz-adv-x="722" 
d="M61 1434h140l157 -572l164 572h140l-175 -576h154v-113h-188l-27 -90v-43h215v-112h-215v-375h117v-125h-369v125h117v375h-209v112h209v41l-27 92h-182v113h149z" />
    <glyph glyph-name="dieresis" unicode="&#xa8;" horiz-adv-x="485" 
d="M61 1288v146h125v-146h-125zM301 1288v146h123v-146h-123z" />
    <glyph glyph-name="copyright" unicode="&#xa9;" horiz-adv-x="1013" 
d="M61 362v709q0 160 112.5 272.5t272.5 112.5h123q158 0 270.5 -113.5t112.5 -271.5v-709q0 -158 -112.5 -271.5t-270.5 -113.5h-123q-160 0 -272.5 112.5t-112.5 272.5zM166 362q0 -117 81.5 -198.5t198.5 -81.5h123q116 0 198.5 84t82.5 196v709q0 115 -83 198t-198 83
h-123q-117 0 -198.5 -82t-81.5 -199v-709zM272 389v666q0 76 55 131t132 55h98q75 0 130.5 -55t55.5 -131v-103h-125v103q0 26 -18 44.5t-43 18.5h-98q-26 0 -45 -18.5t-19 -44.5v-666q0 -26 19 -44.5t45 -18.5h98q25 0 43 18.5t18 44.5v172h125v-172q0 -78 -54.5 -133
t-131.5 -55h-98q-77 0 -132 55t-55 133z" />
    <glyph glyph-name="guillemotleft" unicode="&#xab;" horiz-adv-x="604" 
d="M61 553l189 414h92l-137 -414l137 -416h-92zM313 553l138 414h92l-94 -414l94 -416h-92z" />
    <glyph glyph-name="uni00AD" unicode="&#xad;" horiz-adv-x="526" 
d="M61 549v110h404v-110h-404z" />
    <glyph glyph-name="registered" unicode="&#xae;" horiz-adv-x="1015" 
d="M61 362v709q0 158 112.5 271.5t270.5 113.5h127q158 0 270.5 -113.5t112.5 -271.5v-709q0 -159 -112 -272t-271 -113h-127q-158 0 -270.5 113.5t-112.5 271.5zM166 362q0 -116 81.5 -198t196.5 -82h127q116 0 198.5 84t82.5 196v709q0 115 -83 198t-198 83h-127
q-115 0 -196.5 -82.5t-81.5 -198.5v-709zM303 201v1040h246q77 0 131.5 -54.5t54.5 -131.5v-137q0 -45 -27 -89t-69 -69q37 -17 66.5 -64.5t29.5 -91.5v-403h-123v403q0 38 -28 66t-66 28h-90v-497h-125zM428 823h90q39 0 66.5 28t27.5 67v137q0 25 -18.5 44t-44.5 19h-121
v-295z" />
    <glyph glyph-name="acute" unicode="&#xb4;" horiz-adv-x="428" 
d="M92 1298l182 136l62 -78l-182 -135z" />
    <glyph glyph-name="cedilla" unicode="&#xb8;" horiz-adv-x="339" 
d="M61 -225h99q8 0 16 8t8 18v17q0 9 -7 16.5t-17 7.5h-84v199h76v-109h8q47 0 83 -34t36 -82v-13q0 -47 -35 -83.5t-84 -36.5h-99v92z" />
    <glyph glyph-name="guillemotright" unicode="&#xbb;" horiz-adv-x="604" 
d="M61 137l95 416l-95 414h93l137 -414l-137 -416h-93zM262 137l137 416l-137 414h92l189 -414l-189 -416h-92z" />
    <glyph glyph-name="circumflex" unicode="&#x2c6;" horiz-adv-x="577" 
d="M92 1319l184 115h27l182 -115l-61 -78l-135 86l-135 -86z" />
    <glyph glyph-name="ring" unicode="&#x2da;" horiz-adv-x="475" 
d="M92 1329q0 61 42 103.5t104 42.5q61 0 103 -42t42 -104q0 -61 -41.5 -103t-103.5 -42t-104 42t-42 103zM166 1329q0 -29 21.5 -50.5t50.5 -21.5t50 21.5t21 50.5t-21 50.5t-50 21.5t-50.5 -21.5t-21.5 -50.5z" />
    <glyph glyph-name="tilde" unicode="&#x2dc;" horiz-adv-x="616" 
d="M92 1286q0 64 37 106t98 42q43 0 88.5 -28t71.5 -28q51 0 51 56h86q0 -63 -36.5 -105.5t-96.5 -42.5q-42 0 -87.5 28.5t-67.5 28.5q-28 0 -43 -15.5t-15 -41.5h-86z" />
    <glyph glyph-name="uni0400" unicode="&#x400;" horiz-adv-x="534" 
d="M82 0v1434h391v-136h-256v-462h223v-125h-223v-576h254v-135h-389zM166 1630l61 78l183 -135l-62 -78z" />
    <glyph glyph-name="afii10023" unicode="&#x401;" horiz-adv-x="534" 
d="M82 0v1434h391v-136h-256v-462h223v-125h-223v-576h254v-135h-389zM96 1536v145h125v-145h-125zM336 1536v145h123v-145h-123z" />
    <glyph glyph-name="afii10051" unicode="&#x402;" horiz-adv-x="782" 
d="M51 1298v136h508v-136h-207v-309l105 33q35 12 69 12q79 0 132 -50t53 -128v-872q0 -78 -57.5 -134.5t-133.5 -56.5h-86v127h86q29 0 46.5 18.5t17.5 45.5v866q0 27 -16 41t-42 14q-17 0 -32 -6l-142 -49v-850h-135v1298h-166z" />
    <glyph glyph-name="afii10052" unicode="&#x403;" horiz-adv-x="514" 
d="M82 0v1434h412v-136h-277v-1298h-135zM166 1614l182 135l62 -78l-183 -135z" />
    <glyph glyph-name="afii10053" unicode="&#x404;" horiz-adv-x="608" 
d="M82 193v1048q0 79 57 136t135 57h60q79 0 135.5 -56.5t56.5 -136.5v-160h-135v160q0 24 -16.5 40.5t-40.5 16.5h-60q-24 0 -40.5 -16.5t-16.5 -40.5v-405h164v-125h-164v-518q0 -23 17 -40.5t40 -17.5h60q23 0 40 17.5t17 40.5v219h135v-219q0 -80 -56.5 -136.5
t-135.5 -56.5h-60q-78 0 -135 57t-57 136z" />
    <glyph glyph-name="afii10054" unicode="&#x405;" 
d="M82 193v219h135v-219q0 -25 16.5 -41.5t40.5 -16.5h95q23 0 40 16.5t17 41.5v243q0 86 -43 137l-233 285q-68 85 -68 217v166q0 78 57 135.5t135 57.5h95q78 0 135 -57t57 -136v-160h-135v160q0 23 -17 40t-40 17h-95q-23 0 -40 -17t-17 -40v-166q0 -84 43 -137l232 -285
q69 -83 69 -217v-243q0 -79 -57 -136t-135 -57h-95q-79 0 -135.5 56.5t-56.5 136.5z" />
    <glyph glyph-name="afii10055" unicode="&#x406;" horiz-adv-x="532" 
d="M82 0v135h117v1163h-117v136h369v-136h-117v-1163h117v-135h-369z" />
    <glyph glyph-name="afii10056" unicode="&#x407;" horiz-adv-x="544" 
d="M82 0v135h117v1163h-117v136h369v-136h-117v-1163h117v-135h-369zM100 1536v145h125v-145h-125zM340 1536v145h123v-145h-123z" />
    <glyph glyph-name="afii10057" unicode="&#x408;" horiz-adv-x="606" 
d="M51 193v219h135v-219q0 -24 17 -41t41 -17h88q25 0 41 16.5t16 41.5v1241h135v-1241q0 -80 -56.5 -136.5t-135.5 -56.5h-88q-78 0 -135.5 57t-57.5 136z" />
    <glyph glyph-name="afii10058" unicode="&#x409;" horiz-adv-x="1079" 
d="M41 -23v136q113 0 113 415v906h483v-473h188q79 0 136 -57.5t57 -135.5v-575q0 -79 -57 -136t-136 -57h-323v1298h-213v-718q0 -74 -0.5 -114t-5.5 -113.5t-13.5 -116.5t-27 -98.5t-44 -86t-66 -52.5t-91.5 -22zM637 135h188q23 0 40.5 17.5t17.5 40.5v585
q0 23 -17.5 40.5t-40.5 17.5h-188v-701z" />
    <glyph glyph-name="afii10059" unicode="&#x40a;" horiz-adv-x="1046" 
d="M82 0v1434h135v-598h252v598h135v-598h189q79 0 135.5 -57.5t56.5 -135.5v-450q0 -80 -56.5 -136.5t-135.5 -56.5h-324v711h-252v-711h-135zM604 135h189q23 0 40 17.5t17 40.5v460q0 23 -17 40.5t-40 17.5h-189v-576z" />
    <glyph glyph-name="afii10060" unicode="&#x40b;" horiz-adv-x="796" 
d="M51 1298v136h508v-136h-207v-321l119 47q33 10 66 10q77 0 132.5 -56t55.5 -134v-844h-127v852q0 25 -17.5 40t-43.5 15q-9 0 -25 -4l-160 -63v-840h-135v1298h-166z" />
    <glyph glyph-name="afii10061" unicode="&#x40c;" horiz-adv-x="624" 
d="M82 0v1434h135v-598h57q47 0 77 30t30 76v285q0 85 59.5 146t143.5 61h10v-134h-10q-29 -3 -48.5 -23.5t-19.5 -49.5v-297q0 -58 -30.5 -109t-84.5 -73l193 -748h-139l-185 711h-53v-711h-135zM238 1614l182 135l61 -78l-182 -135z" />
    <glyph glyph-name="uni040D" unicode="&#x40d;" horiz-adv-x="741" 
d="M82 0v1434h135v-652l-39 -530l15 -4l284 1186h182v-1434h-135v651l39 510l-14 4l-283 -1165h-184zM244 1671l61 78l182 -135l-61 -78z" />
    <glyph glyph-name="afii10062" unicode="&#x40e;" horiz-adv-x="608" 
d="M31 1434h137l143 -887h27l102 887h138l-166 -1434h-138l50 412h-125zM117 1679v17h100v-23q0 -17 12 -30t29 -13h127q17 0 29 13t12 30v23h100v-17q0 -62 -39 -102.5t-100 -40.5h-131q-61 0 -100 40.5t-39 102.5z" />
    <glyph glyph-name="afii10145" unicode="&#x40f;" horiz-adv-x="686" 
d="M82 0v1434h135v-1299h252v1299h135v-1434h-194v-317h-136v317h-192z" />
    <glyph glyph-name="afii10017" unicode="&#x410;" horiz-adv-x="714" 
d="M41 0l195 1434h243l195 -1434h-135l-62 422h-239l-60 -422h-137zM252 547h211l-101 753h-10z" />
    <glyph glyph-name="afii10018" unicode="&#x411;" horiz-adv-x="671" 
d="M82 0v1434h477v-136h-342v-462h180q80 0 136.5 -56t56.5 -135v-452q0 -79 -57 -136t-136 -57h-315zM217 135h180q23 0 40.5 17.5t17.5 40.5v460q0 24 -17 41t-41 17h-180v-576z" />
    <glyph glyph-name="afii10019" unicode="&#x412;" horiz-adv-x="679" 
d="M82 0v1434h324q79 0 135.5 -56.5t56.5 -136.5v-272q0 -59 -30.5 -116.5t-86.5 -80.5q57 -21 87 -71t30 -107v-401q0 -80 -56.5 -136.5t-135.5 -56.5h-324zM217 135h189q25 0 41 16.5t16 41.5v415q0 64 -27.5 83.5t-91.5 19.5h-127v-576zM217 836h141q105 0 105 139v266
q0 24 -16.5 40.5t-40.5 16.5h-189v-462z" />
    <glyph glyph-name="afii10020" unicode="&#x413;" horiz-adv-x="514" 
d="M82 0v1434h412v-136h-277v-1298h-135z" />
    <glyph glyph-name="afii10021" unicode="&#x414;" horiz-adv-x="868" 
d="M41 135h76q34 60 56.5 140t32 171.5t12.5 162.5t3 159v666h512v-1299h115v-452h-135v317h-537v-317h-135v452zM266 135h332v1163h-242v-530q0 -188 -18 -344t-72 -289z" />
    <glyph glyph-name="afii10022" unicode="&#x415;" horiz-adv-x="534" 
d="M82 0v1434h391v-136h-256v-462h223v-125h-223v-576h254v-135h-389z" />
    <glyph glyph-name="afii10024" unicode="&#x416;" horiz-adv-x="942" 
d="M31 0l205 713q-54 23 -84.5 72.5t-30.5 109.5v332q0 28 -19.5 49t-48.5 22h-22v136h22q86 0 144.5 -61t58.5 -146v-318q0 -47 31 -78.5t78 -31.5h38v635h136v-635h39q47 0 76.5 31t29.5 77v320q0 85 60 146t145 61h22v-136h-22q-28 -2 -49 -23t-21 -48v-332
q0 -61 -30 -111t-84 -71l206 -713h-149l-187 674h-36v-674h-136v674h-36l-189 -674h-147z" />
    <glyph glyph-name="afii10025" unicode="&#x417;" horiz-adv-x="595" 
d="M51 193v219h135v-219q0 -23 17.5 -40.5t40.5 -17.5h78q24 0 40.5 17t16.5 41v413q0 58 -28 81.5t-85 23.5h-67v125h67q54 0 83.5 38.5t29.5 96.5v270q0 24 -16.5 40.5t-40.5 16.5h-78q-24 0 -41 -16.5t-17 -40.5v-160h-135v160q0 79 57.5 136t135.5 57h78
q79 0 135.5 -56.5t56.5 -136.5v-272q0 -62 -27.5 -111.5t-80.5 -71.5q51 -19 79.5 -60.5t28.5 -96.5v-436q0 -78 -56.5 -135.5t-135.5 -57.5h-78q-78 0 -135.5 57t-57.5 136z" />
    <glyph glyph-name="afii10026" unicode="&#x418;" horiz-adv-x="741" 
d="M82 0v1434h135v-652l-39 -530l15 -4l284 1186h182v-1434h-135v651l39 510l-14 4l-283 -1165h-184z" />
    <glyph glyph-name="afii10027" unicode="&#x419;" horiz-adv-x="741" 
d="M82 0v1434h135v-652l-39 -530l15 -4l284 1186h182v-1434h-135v651l39 510l-14 4l-283 -1165h-184zM166 1679v17h100v-23q0 -17 12 -30t29 -13h127q17 0 29 13t12 30v23h100v-17q0 -62 -39 -102.5t-100 -40.5h-131q-61 0 -100 40.5t-39 102.5z" />
    <glyph glyph-name="afii10028" unicode="&#x41a;" horiz-adv-x="624" 
d="M82 0v1434h135v-598h57q47 0 77 30t30 76v285q0 85 59.5 146t143.5 61h10v-134h-10q-29 -3 -48.5 -23.5t-19.5 -49.5v-297q0 -58 -30.5 -109t-84.5 -73l193 -748h-139l-185 711h-53v-711h-135z" />
    <glyph glyph-name="afii10029" unicode="&#x41b;" horiz-adv-x="718" 
d="M41 -23v136q113 0 113 415v906h483v-1434h-135v1298h-213v-718q0 -74 -0.5 -114t-5.5 -113.5t-13.5 -116.5t-27 -98.5t-44 -86t-66 -52.5t-91.5 -22z" />
    <glyph glyph-name="afii10030" unicode="&#x41c;" horiz-adv-x="974" 
d="M82 0v1434h192l215 -1125l209 1125h195v-1434h-135v610l43 580l-15 2l-225 -1192h-143l-223 1192l-15 -2l37 -580v-610h-135z" />
    <glyph glyph-name="afii10031" unicode="&#x41d;" horiz-adv-x="686" 
d="M82 0v1434h135v-598h252v598h135v-1434h-135v711h-252v-711h-135z" />
    <glyph glyph-name="afii10032" unicode="&#x41e;" horiz-adv-x="684" 
d="M82 193v1048q0 79 57 136t135 57h136q79 0 135.5 -56.5t56.5 -136.5v-1048q0 -80 -56.5 -136.5t-135.5 -56.5h-136q-78 0 -135 57t-57 136zM217 193q0 -25 16.5 -41.5t40.5 -16.5h136q24 0 40.5 16.5t16.5 41.5v1048q0 23 -17 40t-40 17h-136q-23 0 -40 -17t-17 -40
v-1048z" />
    <glyph glyph-name="afii10033" unicode="&#x41f;" horiz-adv-x="677" 
d="M82 0v1434h514v-1434h-135v1298h-244v-1298h-135z" />
    <glyph glyph-name="afii10034" unicode="&#x420;" horiz-adv-x="645" 
d="M82 0v1434h299q78 0 135 -57t57 -136v-467q0 -80 -50 -135t-130 -55h-176v-584h-135zM217 711h156q29 0 47 22t18 51v457q0 23 -17 40t-40 17h-164v-587z" />
    <glyph glyph-name="afii10035" unicode="&#x421;" horiz-adv-x="636" 
d="M82 193v1048q0 79 57 136t135 57h88q80 0 136.5 -57t56.5 -136v-160h-135v160q0 23 -17 40t-41 17h-88q-23 0 -40 -17t-17 -40v-1048q0 -25 16.5 -41.5t40.5 -16.5h88q24 0 41 17t17 41v219h135v-219q0 -79 -56.5 -136t-136.5 -57h-88q-78 0 -135 57t-57 136z" />
    <glyph glyph-name="afii10036" unicode="&#x422;" horiz-adv-x="569" 
d="M51 1298v136h467v-136h-166v-1298h-135v1298h-166z" />
    <glyph glyph-name="afii10037" unicode="&#x423;" horiz-adv-x="608" 
d="M31 1434h137l143 -887h27l102 887h138l-166 -1434h-138l50 412h-125z" />
    <glyph glyph-name="afii10038" unicode="&#x424;" horiz-adv-x="860" 
d="M82 328v778q0 80 56 136t136 56h88v156h136v-156h88q80 0 136 -56t56 -136v-778q0 -80 -56.5 -136.5t-135.5 -56.5h-88v-135h-136v135h-88q-79 0 -135.5 56.5t-56.5 136.5zM217 328q0 -25 16 -41.5t41 -16.5h88v893h-88q-24 0 -40.5 -16.5t-16.5 -40.5v-778zM498 270h88
q24 0 40.5 17t16.5 41v778q0 23 -17 40t-40 17h-88v-893z" />
    <glyph glyph-name="afii10039" unicode="&#x425;" horiz-adv-x="733" 
d="M31 0l219 768l-197 666h140l174 -582l174 582h141l-201 -666l221 -768h-139l-196 684l-195 -684h-141z" />
    <glyph glyph-name="afii10040" unicode="&#x426;" horiz-adv-x="731" 
d="M82 0v1434h135v-1299h246v1299h135v-1299h113v-452h-136v317h-493z" />
    <glyph glyph-name="afii10041" unicode="&#x427;" horiz-adv-x="681" 
d="M82 776v658h135v-666q0 -23 17 -40t40 -17h191v723h135v-1434h-135v584h-191q-80 0 -136 56t-56 136z" />
    <glyph glyph-name="afii10042" unicode="&#x428;" horiz-adv-x="1060" 
d="M82 0v1434h135v-1299h246v1299h135v-1299h246v1299h135v-1434h-897z" />
    <glyph glyph-name="afii10043" unicode="&#x429;" horiz-adv-x="1112" 
d="M82 0v1434h135v-1299h246v1299h135v-1299h246v1299h135v-1299h113v-452h-136v317h-874z" />
    <glyph glyph-name="afii10044" unicode="&#x42a;" horiz-adv-x="815" 
d="M41 1309v125h311v-473h189q79 0 135.5 -57.5t56.5 -135.5v-575q0 -80 -56.5 -136.5t-135.5 -56.5h-324v1309h-176zM352 135h189q23 0 40 17.5t17 40.5v585q0 24 -16.5 41t-40.5 17h-189v-701z" />
    <glyph glyph-name="afii10045" unicode="&#x42b;" horiz-adv-x="950" 
d="M82 0v1434h135v-473h189q83 0 137.5 -56.5t54.5 -136.5v-575q0 -80 -56.5 -136.5t-135.5 -56.5h-324zM217 135h189q24 0 40.5 17t16.5 41v585q0 24 -16.5 41t-40.5 17h-189v-701zM733 0v1434h135v-1434h-135z" />
    <glyph glyph-name="afii10046" unicode="&#x42c;" horiz-adv-x="679" 
d="M82 0v1434h135v-473h189q79 0 135.5 -57.5t56.5 -135.5v-575q0 -80 -56.5 -136.5t-135.5 -56.5h-324zM217 135h189q23 0 40 17.5t17 40.5v585q0 23 -17 40.5t-40 17.5h-189v-701z" />
    <glyph glyph-name="afii10047" unicode="&#x42d;" horiz-adv-x="567" 
d="M41 193v219h135v-219q0 -23 17 -40.5t40 -17.5h60q23 0 40 17.5t17 40.5v518h-164v125h164v405q0 24 -16.5 40.5t-40.5 16.5h-60q-24 0 -40.5 -16.5t-16.5 -40.5v-160h-135v160q0 80 56.5 136.5t135.5 56.5h60q78 0 135 -57t57 -136v-1048q0 -79 -57 -136t-135 -57h-60
q-79 0 -135.5 56.5t-56.5 136.5z" />
    <glyph glyph-name="afii10048" unicode="&#x42e;" horiz-adv-x="958" 
d="M82 0v1434h135v-598h152v405q0 80 56.5 136.5t135.5 56.5h123q80 0 136.5 -57t56.5 -136v-1048q0 -79 -56.5 -136t-136.5 -57h-123q-79 0 -135.5 56.5t-56.5 136.5v518h-152v-711h-135zM504 193q0 -23 17 -40.5t40 -17.5h123q23 0 40 17.5t17 40.5v1048q0 24 -16.5 40.5
t-40.5 16.5h-123q-24 0 -40.5 -16.5t-16.5 -40.5v-1048z" />
    <glyph glyph-name="afii10049" unicode="&#x42f;" horiz-adv-x="655" 
d="M41 0l188 715q-83 27 -123 91t-40 150v285q0 79 57 136t135 57h315v-1434h-137v711h-65l-189 -711h-141zM201 956q0 -61 30 -90.5t93 -29.5h112v462h-178q-24 0 -40.5 -16.5t-16.5 -40.5v-285z" />
    <glyph glyph-name="afii10065" unicode="&#x430;" horiz-adv-x="669" 
d="M72 162v303q0 78 57 134t133 56h207v258q0 27 -19 45.5t-44 18.5h-123q-26 0 -45 -19q-19 -16 -19 -45v-106h-127v108q0 79 57 135t136 56h123q78 0 134 -57.5t56 -133.5v-915h-106l-21 49l-145 -47q-46 -12 -74 -12q-81 0 -130.5 48t-49.5 124zM199 178q0 -27 18.5 -44
t44.5 -17q15 0 23 2l184 63v346h-207q-24 0 -43.5 -19.5t-19.5 -43.5v-287z" />
    <glyph glyph-name="afii10066" unicode="&#x431;" horiz-adv-x="669" 
d="M72 190v854q0 41 8 75t20 58.5t34 46t40.5 35t50 27t52 21t55.5 18.5q45 14 69.5 24.5t46 32.5t21.5 52h129q0 -31 -6.5 -57.5t-16 -46t-28.5 -36.5t-33.5 -28t-42 -23.5t-44.5 -19t-50 -17.5q-12 -4 -36.5 -12t-37 -13t-32 -13.5t-30 -18.5t-21.5 -24t-16 -33t-5 -43
v-25l145 51q33 10 62 10q78 0 135 -55t57 -135v-705q0 -77 -58.5 -133.5t-133.5 -56.5h-144q-77 0 -133.5 57t-56.5 133zM199 190q0 -24 18 -43.5t41 -19.5h152q26 0 43.5 18.5t17.5 44.5v705q0 28 -18.5 47t-44.5 19q-1 0 -21 -5l-188 -65v-701z" />
    <glyph glyph-name="afii10067" unicode="&#x432;" horiz-adv-x="669" 
d="M72 0v1106h336q78 0 134 -57t56 -136v-172q0 -51 -30.5 -91t-78.5 -58q50 -14 79.5 -57.5t29.5 -92.5v-252q0 -78 -55.5 -134t-134.5 -56h-336zM199 127h209q26 0 44.5 18.5t18.5 44.5v242q0 40 -28 68t-68 28h-176v-401zM199 655h176q40 0 68 28.5t28 68.5v161
q0 26 -18.5 45t-44.5 19h-209v-322z" />
    <glyph glyph-name="afii10068" unicode="&#x433;" horiz-adv-x="493" 
d="M72 0v1106h401v-127h-274v-979h-127z" />
    <glyph glyph-name="afii10069" unicode="&#x434;" horiz-adv-x="804" 
d="M10 127h86q30 72 48.5 148t25.5 167.5t8.5 151t1.5 168.5v344h508v-979h96v-334h-127v207h-518v-207h-129v334zM236 127h323v850h-250v-215q0 -149 -2 -225t-19 -194.5t-52 -215.5z" />
    <glyph glyph-name="afii10070" unicode="&#x435;" horiz-adv-x="649" 
d="M72 193v722q0 79 56.5 135t133.5 56h125q79 0 135 -57t56 -134v-387h-379v-338q0 -27 19 -45t44 -18h125q27 0 45.5 19t18.5 44v175h127v-172q0 -79 -57 -136t-134 -57h-125q-78 0 -134 58.5t-56 134.5zM199 655h252v258q0 27 -19.5 45.5t-44.5 18.5h-125q-27 0 -45 -19
t-18 -45v-258z" />
    <glyph glyph-name="afii10072" unicode="&#x436;" horiz-adv-x="964" 
d="M31 0l227 518q-58 25 -91.5 76.5t-33.5 116.5v192q0 31 -22.5 52.5t-53.5 21.5h-24v129h24q83 0 143 -60t60 -143v-190q0 -35 25.5 -60.5t60.5 -25.5h72v479h129v-479h71q35 0 61 25.5t26 60.5v190q0 83 59.5 143t142.5 60h27v-129h-27q-31 0 -53.5 -21.5t-22.5 -52.5
v-192q0 -64 -33 -115t-89 -78l225 -518h-135l-219 500h-33v-500h-129v500h-33l-219 -500h-135z" />
    <glyph glyph-name="afii10073" unicode="&#x437;" horiz-adv-x="616" 
d="M72 190v175h129v-175q0 -26 18.5 -44.5t44.5 -18.5h90q26 0 45 18.5t19 44.5v222q0 62 -30.5 89t-90.5 27h-96v127h84q58 0 95.5 43t37.5 103v112q0 26 -19 45t-45 19h-90q-27 0 -45 -18.5t-18 -45.5v-106h-129v108q0 78 56.5 134.5t135.5 56.5h90q78 0 134.5 -56.5
t56.5 -134.5v-143q0 -125 -107 -180q107 -32 107 -139v-263q0 -78 -56.5 -134t-134.5 -56h-90q-79 0 -135.5 56t-56.5 134z" />
    <glyph glyph-name="afii10074" unicode="&#x438;" horiz-adv-x="733" 
d="M72 0v1106h127v-516l-33 -463l319 979h177v-1106h-127v455l32 522l-319 -977h-176z" />
    <glyph glyph-name="afii10075" unicode="&#x439;" horiz-adv-x="733" 
d="M72 0v1106h127v-516l-33 -463l319 979h177v-1106h-127v455l32 522l-319 -977h-176zM156 1417v17h100v-23q0 -17 12 -30t29 -13h127q17 0 29 13t12 30v23h100v-17q0 -62 -39 -102.5t-100 -40.5h-131q-61 0 -100 40.5t-39 102.5z" />
    <glyph glyph-name="afii10076" unicode="&#x43a;" horiz-adv-x="624" 
d="M72 0v1106h127v-451h104q35 0 59.5 26t24.5 62v160q0 84 58 143.5t141 59.5h8v-129h-8q-30 0 -50 -21.5t-20 -52.5v-164q0 -61 -34 -111.5t-91 -76.5l203 -551h-135l-197 528h-63v-528h-127z" />
    <glyph glyph-name="afii10077" unicode="&#x43b;" horiz-adv-x="690" 
d="M20 -10v129q27 0 46.5 15.5t32 48t20 67.5t11 91t4.5 101t1 113v360q0 78 57 134.5t136 56.5h290v-1106h-126v977h-164q-26 0 -45 -19t-19 -45v-344q0 -75 -1.5 -126.5t-6.5 -117t-15 -110t-28 -90.5t-43.5 -73t-63.5 -44.5t-86 -17.5z" />
    <glyph glyph-name="afii10078" unicode="&#x43c;" horiz-adv-x="931" 
d="M72 0v1106h172l221 -916l223 916h172v-1106h-129v424l41 512l-227 -936h-158l-229 936l43 -520v-416h-129z" />
    <glyph glyph-name="afii10079" unicode="&#x43d;" horiz-adv-x="677" 
d="M72 0v1106h127v-451h280v451h127v-1106h-127v528h-280v-528h-127z" />
    <glyph glyph-name="afii10080" unicode="&#x43e;" horiz-adv-x="671" 
d="M72 190v723q0 79 55.5 136t134.5 57h148q78 0 134 -57t56 -136v-723q0 -78 -55.5 -134t-134.5 -56h-148q-79 0 -134.5 56t-55.5 134zM199 190q0 -26 18.5 -44.5t44.5 -18.5h148q26 0 44.5 18.5t18.5 44.5v723q0 26 -18.5 45t-44.5 19h-148q-26 0 -44.5 -19t-18.5 -45
v-723z" />
    <glyph glyph-name="afii10081" unicode="&#x43f;" horiz-adv-x="665" 
d="M72 0v1106h522v-1106h-127v977h-268v-977h-127z" />
    <glyph glyph-name="afii10082" unicode="&#x440;" 
d="M72 -317v1423h106l21 -47l120 45q30 12 66 12q76 0 131 -51.5t55 -128.5v-766q0 -79 -52 -129.5t-136 -50.5q-34 0 -64 12l-120 45v-364h-127zM199 182l161 -59q12 -4 21 -4q26 0 44.5 15t18.5 40v752q0 28 -16.5 44.5t-46.5 16.5q-15 0 -21 -2l-161 -63v-740z" />
    <glyph glyph-name="afii10083" unicode="&#x441;" horiz-adv-x="624" 
d="M72 190v723q0 79 56 136t134 57h100q79 0 135 -56.5t56 -136.5v-106h-127v106q0 26 -19 45t-45 19h-100q-26 0 -44.5 -19t-18.5 -45v-723q0 -26 18.5 -44.5t44.5 -18.5h100q26 0 45 18.5t19 44.5v175h127v-175q0 -78 -56 -134t-135 -56h-100q-78 0 -134 56t-56 134z" />
    <glyph glyph-name="afii10084" unicode="&#x442;" horiz-adv-x="518" 
d="M20 977v129h478v-129h-176v-977h-127v977h-175z" />
    <glyph glyph-name="afii10085" unicode="&#x443;" horiz-adv-x="604" 
d="M20 1106h130l145 -979h18l131 979h129l-196 -1423h-129l45 317h-109z" />
    <glyph glyph-name="afii10086" unicode="&#x444;" horiz-adv-x="917" 
d="M72 166v774q0 75 54 125.5t128 50.5q51 0 96 -29l45 -28v375h127v-375l43 28q45 29 99 29q73 0 127.5 -51.5t54.5 -124.5v-774q0 -73 -54.5 -124.5t-127.5 -51.5q-61 0 -99 26l-43 31v-364h-127v364l-45 -31q-38 -26 -96 -26q-74 0 -128 51t-54 125zM199 166
q0 -22 16 -34.5t39 -12.5q21 0 31 6l110 59v738l-110 57q-17 10 -31 10q-23 0 -39 -13.5t-16 -35.5v-774zM522 184l109 -59q10 -6 33 -6t38 12.5t15 34.5v774q0 21 -15.5 35t-37.5 14q-16 0 -33 -10l-109 -57v-738z" />
    <glyph glyph-name="afii10087" unicode="&#x445;" horiz-adv-x="692" 
d="M20 0l209 592l-186 514h137l152 -451h26l152 451h137l-186 -514l211 -592h-135l-177 528h-30l-174 -528h-136z" />
    <glyph glyph-name="afii10088" unicode="&#x446;" horiz-adv-x="733" 
d="M72 0v1106h127v-979h293v979h129v-979h92v-332h-127v205h-514z" />
    <glyph glyph-name="afii10089" unicode="&#x447;" horiz-adv-x="671" 
d="M72 604v502h127v-524q0 -22 15.5 -38t37.5 -16h219v578h129v-1106h-129v401h-197q-85 0 -143.5 59t-58.5 144z" />
    <glyph glyph-name="afii10090" unicode="&#x448;" horiz-adv-x="1062" 
d="M72 0v1106h129v-979h266v979h129v-979h266v979h129v-1106h-919z" />
    <glyph glyph-name="afii10091" unicode="&#x449;" horiz-adv-x="1124" 
d="M72 0v1106h127v-979h268v979h127v-979h268v979h127v-979h115v-332h-127v205h-905z" />
    <glyph glyph-name="afii10092" unicode="&#x44a;" horiz-adv-x="800" 
d="M20 979v127h314v-324h192q85 0 144 -58.5t59 -143.5v-377q0 -84 -59.5 -143.5t-143.5 -59.5h-321v979h-185zM334 127h215q22 0 37.5 15.5t15.5 37.5v422q0 22 -15.5 37.5t-37.5 15.5h-215v-528z" />
    <glyph glyph-name="afii10093" unicode="&#x44b;" horiz-adv-x="905" 
d="M72 0v1106h129v-324h172q84 0 143 -59t59 -143v-377q0 -83 -59.5 -143t-142.5 -60h-301zM201 127h192q22 0 37.5 15.5t15.5 37.5v422q0 22 -15.5 37.5t-37.5 15.5h-192v-528zM705 0v1106h129v-1106h-129z" />
    <glyph glyph-name="afii10094" unicode="&#x44c;" horiz-adv-x="651" 
d="M72 0v1106h127v-324h178q85 0 144 -58.5t59 -143.5v-377q0 -84 -59.5 -143.5t-143.5 -59.5h-305zM199 127h198q23 0 38.5 15.5t15.5 37.5v422q0 22 -15.5 37.5t-38.5 15.5h-198v-528z" />
    <glyph glyph-name="afii10095" unicode="&#x44d;" horiz-adv-x="595" 
d="M72 190v175h127v-175q0 -26 18.5 -44.5t44.5 -18.5h70q28 0 46.5 18.5t18.5 44.5v338h-198v127h198v258q0 27 -18.5 45.5t-46.5 18.5h-70q-26 0 -44.5 -19t-18.5 -45v-106h-127v108q0 78 56 134.5t134 56.5h70q79 0 135.5 -56.5t56.5 -134.5v-725q0 -78 -56.5 -134
t-135.5 -56h-70q-78 0 -134 56t-56 134z" />
    <glyph glyph-name="afii10096" unicode="&#x44e;" horiz-adv-x="954" 
d="M72 0v1106h127v-451h151v260q0 78 57.5 134.5t135.5 56.5h147q79 0 136 -56.5t57 -134.5v-725q0 -78 -57 -134t-136 -56h-147q-78 0 -135.5 56.5t-57.5 133.5v338h-151v-528h-127zM479 190q0 -26 19 -44.5t45 -18.5h147q26 0 45 18.5t19 44.5v723q0 26 -19 45t-45 19
h-147q-26 0 -45 -19t-19 -45v-723z" />
    <glyph glyph-name="afii10097" unicode="&#x44f;" horiz-adv-x="638" 
d="M41 0l170 537q-72 20 -116 80t-44 135v163q0 78 56.5 134.5t134.5 56.5h325v-1106h-127v528h-98l-164 -528h-137zM178 750q0 -38 28 -66.5t68 -28.5h166v322h-198q-26 0 -45 -19t-19 -45v-163z" />
    <glyph glyph-name="uni0450" unicode="&#x450;" horiz-adv-x="649" 
d="M72 193v722q0 79 56.5 135t133.5 56h125q79 0 135 -57t56 -134v-387h-379v-338q0 -27 19 -45t44 -18h125q27 0 45.5 19t18.5 44v175h127v-172q0 -79 -57 -136t-134 -57h-125q-78 0 -134 58.5t-56 134.5zM199 655h252v258q0 27 -19.5 45.5t-44.5 18.5h-125q-27 0 -45 -19
t-18 -45v-258zM209 1356l61 78l183 -136l-62 -77z" />
    <glyph glyph-name="afii10071" unicode="&#x451;" horiz-adv-x="649" 
d="M72 193v722q0 79 56.5 135t133.5 56h125q79 0 135 -57t56 -134v-387h-379v-338q0 -27 19 -45t44 -18h125q27 0 45.5 19t18.5 44v175h127v-172q0 -79 -57 -136t-134 -57h-125q-78 0 -134 58.5t-56 134.5zM150 1288v146h124v-146h-124zM199 655h252v258q0 27 -19.5 45.5
t-44.5 18.5h-125q-27 0 -45 -19t-18 -45v-258zM389 1288v146h123v-146h-123z" />
    <glyph glyph-name="afii10099" unicode="&#x452;" 
d="M-43 1214v105h115v115h127v-115h161v-105h-161v-155l118 47q33 10 66 10q77 0 132.5 -56t55.5 -134v-942q0 -79 -57 -135t-133 -56h-86v127h86q28 0 45.5 18.5t17.5 45.5v950q0 25 -17.5 40t-43.5 15q-9 0 -25 -4l-159 -63v-922h-127v1214h-115z" />
    <glyph glyph-name="afii10100" unicode="&#x453;" horiz-adv-x="493" 
d="M72 0h127v979h274v127h-401v-1106zM162 1298l182 136l62 -78l-183 -135z" />
    <glyph glyph-name="afii10101" unicode="&#x454;" horiz-adv-x="595" 
d="M72 190v725q0 78 56.5 134.5t135.5 56.5h70q78 0 134 -56.5t56 -134.5v-108h-127v106q0 26 -18.5 45t-44.5 19h-70q-28 0 -46.5 -18.5t-18.5 -45.5v-258h198v-127h-198v-338q0 -26 18.5 -44.5t46.5 -18.5h70q26 0 44.5 18.5t18.5 44.5v175h127v-175q0 -78 -56 -134
t-134 -56h-70q-79 0 -135.5 56t-56.5 134z" />
    <glyph glyph-name="afii10102" unicode="&#x455;" horiz-adv-x="630" 
d="M72 190v175h127v-175q0 -26 18.5 -44.5t44.5 -18.5h105q28 0 46.5 18.5t18.5 44.5v86q0 54 -43 97l-233 231q-47 45 -65.5 89.5t-18.5 109.5v110q0 79 56 136t134 57h105q79 0 135.5 -56.5t56.5 -136.5v-106h-127v106q0 27 -19 45.5t-46 18.5h-105q-26 0 -44.5 -19
t-18.5 -45v-100q0 -64 49 -113l239 -235q41 -41 56.5 -80t15.5 -98v-97q0 -78 -56.5 -134t-135.5 -56h-105q-78 0 -134 56t-56 134z" />
    <glyph glyph-name="afii10103" unicode="&#x456;" horiz-adv-x="290" 
d="M82 0v1106h127v-1106h-127zM84 1288v146h125v-146h-125z" />
    <glyph glyph-name="afii10104" unicode="&#x457;" horiz-adv-x="290" 
d="M-35 1288v146h125v-146h-125zM82 0v1106h127v-1106h-127zM205 1288v146h123v-146h-123z" />
    <glyph glyph-name="afii10105" unicode="&#x458;" horiz-adv-x="290" 
d="M-68 -80v-127h86q76 0 133.5 56.5t57.5 134.5v1122h-127v-1122q0 -27 -17.5 -45.5t-46.5 -18.5h-86zM84 1288v146h125v-146h-125z" />
    <glyph glyph-name="afii10106" unicode="&#x459;" horiz-adv-x="1083" 
d="M20 -10v129q27 0 46.5 15.5t32 48t20 67.5t11 91t4.5 101t1 113v360q0 78 57 134.5t136 56.5h303v-324h178q85 0 144 -58.5t59 -143.5v-377q0 -84 -59.5 -143.5t-143.5 -59.5h-305v977h-176q-26 0 -45 -19t-19 -45v-344q0 -75 -1.5 -126.5t-6.5 -117t-15 -110t-28 -90.5
t-43.5 -73t-63.5 -44.5t-86 -17.5zM631 127h198q23 0 38.5 15.5t15.5 37.5v422q0 22 -15.5 37.5t-38.5 15.5h-198v-528z" />
    <glyph glyph-name="afii10107" unicode="&#x45a;" horiz-adv-x="1058" 
d="M72 0v1106h127v-451h280v451h127v-451h178q85 0 144 -58.5t59 -143.5v-250q0 -84 -59.5 -143.5t-143.5 -59.5h-305v528h-280v-528h-127zM606 127h199q23 0 38 15.5t15 37.5v295q0 22 -15 37.5t-38 15.5h-199v-401z" />
    <glyph glyph-name="afii10108" unicode="&#x45b;" 
d="M-10 1214v105h82v115h127v-115h194v-105h-194v-155l118 47q33 10 66 10q77 0 132.5 -56t55.5 -134v-926h-127v934q0 25 -17.5 40t-43.5 15q-9 0 -25 -4l-159 -63v-922h-127v1214h-82z" />
    <glyph glyph-name="afii10109" unicode="&#x45c;" horiz-adv-x="624" 
d="M72 0h127v528h63l197 -528h135l-203 551q57 26 91 76.5t34 111.5v164q0 31 20 52.5t50 21.5h8v129h-8q-83 0 -141 -59.5t-58 -143.5v-160q0 -36 -24.5 -62t-59.5 -26h-104v451h-127v-1106zM211 1298l182 136l62 -78l-183 -135z" />
    <glyph glyph-name="uni045D" unicode="&#x45d;" horiz-adv-x="733" 
d="M72 0v1106h127v-516l-33 -463l319 979h177v-1106h-127v455l32 522l-319 -977h-176zM240 1356l61 78l182 -136l-61 -77z" />
    <glyph glyph-name="afii10110" unicode="&#x45e;" horiz-adv-x="604" 
d="M20 1106h130l145 -979h18l131 979h129l-196 -1423h-129l45 317h-109zM96 1417v17h101v-23q0 -17 12 -30t29 -13h127q17 0 29 13t12 30v23h100v-17q0 -62 -39 -102.5t-100 -40.5h-131q-61 0 -100.5 40.5t-39.5 102.5z" />
    <glyph glyph-name="afii10193" unicode="&#x45f;" horiz-adv-x="677" 
d="M72 0v1106h127v-979h280v979h127v-1106h-203v-207h-127v207h-204z" />
    <glyph glyph-name="afii10146" unicode="&#x462;" horiz-adv-x="679" 
d="M-10 1106v104h92v224h135v-224h176v-104h-176v-145h189q79 0 135.5 -57.5t56.5 -135.5v-575q0 -80 -56.5 -136.5t-135.5 -56.5h-324v1106h-92zM217 135h189q23 0 40 17.5t17 40.5v585q0 23 -17 40.5t-40 17.5h-189v-701z" />
    <glyph glyph-name="afii10194" unicode="&#x463;" horiz-adv-x="671" 
d="M-10 1001v105h102v328h127v-328h174v-105h-174v-219h178q85 0 144 -58.5t59 -143.5v-377q0 -84 -59.5 -143.5t-143.5 -59.5h-305v1001h-102zM219 127h199q23 0 38 15.5t15 37.5v422q0 22 -15 37.5t-38 15.5h-199v-528z" />
    <glyph glyph-name="afii10147" unicode="&#x472;" horiz-adv-x="684" 
d="M82 193v1048q0 79 57 136t135 57h136q79 0 135.5 -56.5t56.5 -136.5v-1048q0 -80 -56.5 -136.5t-135.5 -56.5h-136q-78 0 -135 57t-57 136zM217 193q0 -25 16.5 -41.5t40.5 -16.5h136q24 0 40.5 16.5t16.5 41.5v516q-21 -9 -47 -9q-42 0 -83 29t-63 29q-26 0 -40.5 -13.5
t-16.5 -37.5v-514zM217 838q23 10 49 10q43 0 83.5 -27.5t66.5 -27.5q51 0 51 55v393q0 23 -17 40t-40 17h-136q-23 0 -40 -17t-17 -40v-403z" />
    <glyph glyph-name="afii10195" unicode="&#x473;" horiz-adv-x="675" 
d="M72 190v723q0 78 56.5 135.5t135.5 57.5h148q78 0 135 -57t57 -136v-723q0 -78 -56.5 -134t-135.5 -56h-148q-79 0 -135.5 56t-56.5 134zM201 190q0 -26 18.5 -44.5t44.5 -18.5h148q26 0 44.5 18.5t18.5 44.5v342q-27 -10 -53 -10q-42 0 -89 29t-69 29q-26 0 -43 -14.5
t-20 -37.5v-338zM201 657q26 13 55 13q43 0 89.5 -28t72.5 -28q57 0 57 56v243q0 26 -18.5 45t-44.5 19h-148q-26 0 -44.5 -19t-18.5 -45v-256z" />
    <glyph glyph-name="afii10148" unicode="&#x474;" horiz-adv-x="755" 
d="M31 1434h139l182 -1254l158 1069q13 90 65 148.5t140 58.5h10v-133h-10q-28 -3 -45.5 -23t-22.5 -51l-194 -1249h-203z" />
    <glyph glyph-name="afii10196" unicode="&#x475;" horiz-adv-x="741" 
d="M20 1106h130l194 -979h14l162 815q32 174 191 174h10v-129h-8q-56 0 -70 -74l-186 -913h-211z" />
    <glyph glyph-name="afii10050" unicode="&#x490;" horiz-adv-x="514" 
d="M82 0v1434h276v274h136v-410h-277v-1298h-135z" />
    <glyph glyph-name="afii10098" unicode="&#x491;" horiz-adv-x="493" 
d="M72 0v1106h274v328h127v-455h-274v-979h-127z" />
    <glyph glyph-name="uni0492" unicode="&#x492;" horiz-adv-x="606" 
d="M-20 721v104h102v609h412v-136h-277v-473h166v-104h-166v-721h-135v721h-102z" />
    <glyph glyph-name="uni0493" unicode="&#x493;" horiz-adv-x="493" 
d="M-20 541v104h92v461h401v-127h-274v-334h184v-104h-184v-541h-127v541h-92z" />
    <glyph glyph-name="uni0496" unicode="&#x496;" horiz-adv-x="1007" 
d="M31 0l205 713q-54 23 -84.5 72.5t-30.5 109.5v332q0 28 -19.5 49t-48.5 22h-22v136h22q86 0 144.5 -61t58.5 -146v-318q0 -47 31 -78.5t78 -31.5h38v635h136v-635h39q47 0 76.5 31t29.5 77v320q0 85 60 146t145 61h22v-136h-22q-28 -2 -49 -23t-21 -48v-332
q0 -61 -30 -111t-84 -71l167 -578h115v-452h-135v317h-90l-187 674h-36v-674h-136v674h-36l-189 -674h-147z" />
    <glyph glyph-name="uni0497" unicode="&#x497;" horiz-adv-x="993" 
d="M31 0l227 518q-58 25 -91.5 76.5t-33.5 116.5v192q0 31 -22.5 52.5t-53.5 21.5h-24v129h24q83 0 143 -60t60 -143v-190q0 -35 25.5 -60.5t60.5 -25.5h72v479h129v-479h71q35 0 61 25.5t26 60.5v190q0 83 59.5 143t142.5 60h27v-129h-27q-31 0 -53.5 -21.5t-22.5 -52.5
v-192q0 -64 -33 -115t-89 -78l168 -391h96v-334h-127v207h-47l-219 500h-33v-500h-129v500h-33l-219 -500h-135z" />
    <glyph glyph-name="uni0498" unicode="&#x498;" horiz-adv-x="595" 
d="M51 193v219h135v-219q0 -23 17.5 -40.5t40.5 -17.5h78q24 0 40.5 17t16.5 41v413q0 58 -28 81.5t-85 23.5h-67v125h67q54 0 83.5 38.5t29.5 96.5v270q0 24 -16.5 40.5t-40.5 16.5h-78q-24 0 -41 -16.5t-17 -40.5v-160h-135v160q0 79 57.5 136t135.5 57h78
q79 0 135.5 -56.5t56.5 -136.5v-272q0 -62 -27.5 -111.5t-80.5 -71.5q51 -19 79.5 -60.5t28.5 -96.5v-436q0 -78 -56.5 -135.5t-135.5 -57.5h-9v-68h9q47 0 82.5 -34t35.5 -82v-13q0 -47 -35 -83.5t-83 -36.5h-99v92h99q8 0 16 8t8 18v17q0 9 -7 16.5t-17 7.5h-84v158
q-77 2 -132 58.5t-55 134.5z" />
    <glyph glyph-name="uni0499" unicode="&#x499;" horiz-adv-x="616" 
d="M72 190v175h129v-175q0 -26 18.5 -44.5t44.5 -18.5h90q26 0 45 18.5t19 44.5v222q0 62 -30.5 89t-90.5 27h-96v127h84q58 0 95.5 43t37.5 103v112q0 26 -19 45t-45 19h-90q-27 0 -45 -18.5t-18 -45.5v-106h-129v108q0 78 56.5 134.5t135.5 56.5h90q78 0 134.5 -56.5
t56.5 -134.5v-143q0 -125 -107 -180q107 -32 107 -139v-263q0 -78 -56.5 -134t-134.5 -56h-24v-68h8q47 0 83 -34t36 -82v-13q0 -47 -35 -83.5t-84 -36.5h-98v92h98q8 0 16 8t8 18v17q0 9 -7 16.5t-17 7.5h-84v158q-76 3 -129 58t-53 132z" />
    <glyph glyph-name="uni049A" unicode="&#x49a;" horiz-adv-x="694" 
d="M82 0v1434h135v-598h57q47 0 77 30t30 76v285q0 85 59.5 146t143.5 61h10v-134h-10q-29 -3 -48.5 -23.5t-19.5 -49.5v-297q0 -58 -30.5 -109t-84.5 -73l156 -613h117v-452h-135v317h-84l-185 711h-53v-711h-135z" />
    <glyph glyph-name="uni049B" unicode="&#x49b;" horiz-adv-x="663" 
d="M72 0v1106h127v-451h104q35 0 59.5 26t24.5 62v160q0 84 58 143.5t141 59.5h8v-129h-8q-30 0 -50 -21.5t-20 -52.5v-164q0 -61 -34 -111.5t-91 -76.5l156 -424h96v-332h-127v205h-57l-197 528h-63v-528h-127z" />
    <glyph glyph-name="uni049C" unicode="&#x49c;" horiz-adv-x="751" 
d="M82 0v1434h135v-1434h-135zM281 395v711h96v-270h20q50 0 80.5 30t30.5 76v285q0 85 59.5 146t143.5 61h10v-134h-10q-29 -3 -48.5 -23.5t-19.5 -49.5v-297q0 -58 -30.5 -109t-84.5 -73l193 -748h-139l-185 711h-20v-316h-96z" />
    <glyph glyph-name="uni049D" unicode="&#x49d;" horiz-adv-x="751" 
d="M72 0v1106h127v-1106h-127zM262 197v710h94v-252h64q35 0 59.5 26t24.5 62v160q0 84 57.5 143.5t140.5 59.5h9v-129h-9q-30 0 -49.5 -21.5t-19.5 -52.5v-164q0 -61 -34 -111.5t-91 -76.5l203 -551h-136l-196 528h-23v-331h-94z" />
    <glyph glyph-name="uni04A0" unicode="&#x4a0;" horiz-adv-x="759" 
d="M41 1309v125h311v-598h58q47 0 76.5 30t29.5 76v285q0 85 59.5 146t143.5 61h10v-134h-10q-29 -3 -48.5 -23.5t-19.5 -49.5v-297q0 -58 -30 -109t-84 -73l192 -748h-139l-184 711h-54v-711h-135v1309h-176z" />
    <glyph glyph-name="uni04A1" unicode="&#x4a1;" horiz-adv-x="768" 
d="M20 979v127h312v-451h104q35 0 59.5 26t24.5 62v160q0 84 58 143.5t141 59.5h8v-129h-8q-30 0 -50 -21.5t-20 -52.5v-164q0 -61 -34 -111.5t-91 -76.5l203 -551h-135l-197 528h-63v-528h-127v979h-185z" />
    <glyph glyph-name="uni04A2" unicode="&#x4a2;" horiz-adv-x="739" 
d="M82 0v1434h135v-598h252v598h135v-1299h115v-452h-135v317h-115v711h-252v-711h-135z" />
    <glyph glyph-name="uni04A3" unicode="&#x4a3;" horiz-adv-x="741" 
d="M72 0v1106h127v-451h280v451h127v-979h96v-332h-127v205h-96v528h-280v-528h-127z" />
    <glyph glyph-name="uni04AA" unicode="&#x4aa;" horiz-adv-x="636" 
d="M82 193v1048q0 79 57 136t135 57h88q80 0 136.5 -57t56.5 -136v-160h-135v160q0 23 -17 40t-41 17h-88q-23 0 -40 -17t-17 -40v-1048q0 -25 16.5 -41.5t40.5 -16.5h88q24 0 41 17t17 41v219h135v-219q0 -78 -53.5 -134t-130.5 -59q-76 -92 -76 -164q0 -31 31 -31h47v-90
h-80q-47 0 -72.5 31t-25.5 74q0 88 79 180q-78 0 -135 57t-57 136z" />
    <glyph glyph-name="uni04AB" unicode="&#x4ab;" horiz-adv-x="624" 
d="M72 190v723q0 79 56 136t134 57h100q79 0 135 -56.5t56 -136.5v-106h-127v106q0 26 -19 45t-45 19h-100q-26 0 -44.5 -19t-18.5 -45v-723q0 -26 18.5 -44.5t44.5 -18.5h100q26 0 45 18.5t19 44.5v175h127v-175q0 -77 -53 -132t-129 -58q-76 -92 -76 -164q0 -31 31 -31h47
v-90h-80q-47 0 -72.5 31t-25.5 74q0 88 79 180h-12q-78 0 -134 56t-56 134z" />
    <glyph glyph-name="uni04AE" unicode="&#x4ae;" horiz-adv-x="681" 
d="M41 1434h139l158 -572l164 572h139l-235 -779v-520h116v-135h-368v135h116v518z" />
    <glyph glyph-name="uni04AF" unicode="&#x4af;" horiz-adv-x="677" 
d="M31 1106h137l166 -451h14l162 451h137l-219 -578h-22v-528h-130v528h-22z" />
    <glyph glyph-name="uni04B0" unicode="&#x4b0;" horiz-adv-x="681" 
d="M41 1434h139l158 -572l164 572h139l-235 -779v-10h137v-104h-137v-406h116v-135h-368v135h116v406h-131v104h131v8z" />
    <glyph glyph-name="uni04B1" unicode="&#x4b1;" horiz-adv-x="661" 
d="M31 1106h139l158 -571l164 571h139l-236 -778v-224h158v-104h-158v-317h-135v317h-151v104h151v222z" />
    <glyph glyph-name="uni04B2" unicode="&#x4b2;" horiz-adv-x="796" 
d="M31 0l219 768l-197 666h140l174 -582l174 582h141l-201 -666l183 -633h112v-452h-135v317h-78l-196 684l-195 -684h-141z" />
    <glyph glyph-name="uni04B3" unicode="&#x4b3;" horiz-adv-x="743" 
d="M20 0l209 592l-186 514h137l152 -451h26l152 451h137l-186 -514l166 -465h96v-332h-127v205h-59l-177 528h-30l-174 -528h-136z" />
    <glyph glyph-name="uni04B8" unicode="&#x4b8;" horiz-adv-x="681" 
d="M82 776v658h135v-666q0 -23 17 -40t40 -17h27v395h96v-395h68v723h135v-1434h-135v584h-68v-189h-96v189h-27q-80 0 -136 56t-56 136z" />
    <glyph glyph-name="uni04B9" unicode="&#x4b9;" horiz-adv-x="671" 
d="M72 604v502h127v-524q0 -22 15.5 -38t37.5 -16h51v379h94v-379h74v578h129v-1106h-129v401h-74v-204h-94v204h-29q-85 0 -143.5 59t-58.5 144z" />
    <glyph glyph-name="uni04BA" unicode="&#x4ba;" horiz-adv-x="686" 
d="M82 0v1434h135v-598h195q79 0 135.5 -57.5t56.5 -135.5v-643h-135v653q0 23 -17 40.5t-40 17.5h-195v-711h-135z" />
    <glyph glyph-name="uni04BB" unicode="&#x4bb;" horiz-adv-x="677" 
d="M72 0v1106h127v-451h217q78 0 134 -56.5t56 -135.5v-463h-127v465q0 26 -18.5 44.5t-44.5 18.5h-217v-528h-127z" />
    <glyph glyph-name="uni04D0" unicode="&#x4d0;" horiz-adv-x="714" 
d="M41 0l195 1434h243l195 -1434h-135l-62 422h-239l-60 -422h-137zM154 1679v17h100v-23q0 -17 12 -30t29 -13h127q17 0 29 13t12 30v23h100v-17q0 -62 -39 -102.5t-100 -40.5h-131q-61 0 -100 40.5t-39 102.5zM252 547h211l-101 753h-10z" />
    <glyph glyph-name="uni04D1" unicode="&#x4d1;" horiz-adv-x="669" 
d="M72 162v303q0 78 57 134t133 56h207v258q0 27 -19 45.5t-44 18.5h-123q-26 0 -45 -19q-19 -16 -19 -45v-106h-127v108q0 79 57 135t136 56h123q78 0 134 -57.5t56 -133.5v-915h-106l-21 49l-145 -47q-46 -12 -74 -12q-81 0 -130.5 48t-49.5 124zM141 1417v17h101v-23
q0 -17 12 -30t29 -13h127q17 0 29 13t12 30v23h100v-17q0 -62 -39 -102.5t-100 -40.5h-131q-61 0 -100.5 40.5t-39.5 102.5zM199 178q0 -27 18.5 -44t44.5 -17q15 0 23 2l184 63v346h-207q-24 0 -43.5 -19.5t-19.5 -43.5v-287z" />
    <glyph glyph-name="uni04D2" unicode="&#x4d2;" horiz-adv-x="714" 
d="M41 0l195 1434h243l195 -1434h-135l-62 422h-239l-60 -422h-137zM176 1536v145h125v-145h-125zM252 547h211l-101 753h-10zM416 1536v145h123v-145h-123z" />
    <glyph glyph-name="uni04D3" unicode="&#x4d3;" horiz-adv-x="669" 
d="M72 162v303q0 78 57 134t133 56h207v258q0 27 -19 45.5t-44 18.5h-123q-26 0 -45 -19q-19 -16 -19 -45v-106h-127v108q0 79 57 135t136 56h123q78 0 134 -57.5t56 -133.5v-915h-106l-21 49l-145 -47q-46 -12 -74 -12q-81 0 -130.5 48t-49.5 124zM154 1288v146h125v-146
h-125zM199 178q0 -27 18.5 -44t44.5 -17q15 0 23 2l184 63v346h-207q-24 0 -43.5 -19.5t-19.5 -43.5v-287zM393 1288v146h123v-146h-123z" />
    <glyph glyph-name="uni04D4" unicode="&#x4d4;" horiz-adv-x="980" 
d="M41 0l307 1434h572v-136h-254v-462h223v-125h-223v-576h254v-135h-392v412h-260l-90 -412h-137zM293 537h235v763h-73z" />
    <glyph glyph-name="uni04D5" unicode="&#x4d5;" horiz-adv-x="1048" 
d="M72 162v303q0 78 57 134t133 56h207v258q0 27 -19 45.5t-44 18.5h-123q-26 0 -45 -19q-19 -16 -19 -45v-106h-127v108q0 79 57 135t136 56h123q72 0 127 -49q52 49 127 49h124q79 0 135 -57t56 -134v-387h-379v-338q0 -27 19 -45t45 -18h124q27 0 45.5 19t18.5 44v175
h127v-172q0 -79 -57 -136t-134 -57h-124q-85 0 -144 66l-192 -64q-46 -12 -74 -12q-81 0 -130.5 48t-49.5 124zM199 178q0 -27 18.5 -44t44.5 -17q15 0 23 2l184 63v346h-207q-24 0 -43.5 -19.5t-19.5 -43.5v-287zM598 655h252v258q0 27 -19.5 45.5t-44.5 18.5h-127
q-26 0 -43.5 -16.5t-17.5 -40.5v-265z" />
    <glyph glyph-name="uni04D6" unicode="&#x4d6;" horiz-adv-x="534" 
d="M72 1679v17h100v-23q0 -17 12 -30t29 -13h127q17 0 29 13t12 30v23h100v-17q0 -62 -39 -102.5t-100 -40.5h-131q-61 0 -100 40.5t-39 102.5zM82 0v1434h391v-136h-256v-462h223v-125h-223v-576h254v-135h-389z" />
    <glyph glyph-name="uni04D7" unicode="&#x4d7;" horiz-adv-x="649" 
d="M72 193v722q0 79 56.5 135t133.5 56h125q79 0 135 -57t56 -134v-387h-379v-338q0 -27 19 -45t44 -18h125q27 0 45.5 19t18.5 44v175h127v-172q0 -79 -57 -136t-134 -57h-125q-78 0 -134 58.5t-56 134.5zM119 1417v17h100v-23q0 -17 12 -30t29 -13h127q17 0 29 13t12 30
v23h100v-17q0 -62 -39 -102.5t-100 -40.5h-131q-61 0 -100 40.5t-39 102.5zM199 655h252v258q0 27 -19.5 45.5t-44.5 18.5h-125q-27 0 -45 -19t-18 -45v-258z" />
    <glyph glyph-name="uni04D8" unicode="&#x4d8;" horiz-adv-x="669" 
d="M82 193v219h133v-213q0 -25 18.5 -44.5t45.5 -19.5h112q25 0 44.5 18.5t19.5 45.5v503h-373v541q0 77 55.5 134t134.5 57h125q77 0 134 -56t57 -135v-1050q0 -76 -56.5 -134.5t-134.5 -58.5h-125q-77 0 -133.5 57t-56.5 136zM215 836h240v399q0 25 -18.5 44t-45.5 19
h-112q-26 0 -45 -18t-19 -45v-399z" />
    <glyph glyph-name="afii10846" unicode="&#x4d9;" horiz-adv-x="649" 
d="M72 193v172h127v-175q0 -25 18 -44t45 -19h125q26 0 45 18t19 45v338h-379v387q0 77 55.5 134t134.5 57h125q77 0 134 -56t57 -135v-722q0 -76 -56.5 -134.5t-134.5 -58.5h-125q-77 0 -133.5 57t-56.5 136zM199 655h252v258q0 25 -18.5 44.5t-45.5 19.5h-125
q-25 0 -44 -18.5t-19 -45.5v-258z" />
    <glyph glyph-name="uni04DA" unicode="&#x4da;" horiz-adv-x="669" 
d="M82 193v219h133v-213q0 -25 18.5 -44.5t45.5 -19.5h112q25 0 44.5 18.5t19.5 45.5v503h-373v541q0 77 55.5 134t134.5 57h125q77 0 134 -56t57 -135v-1050q0 -76 -56.5 -134.5t-134.5 -58.5h-125q-77 0 -133.5 57t-56.5 136zM145 1536v145h125v-145h-125zM215 836h240
v399q0 25 -18.5 44t-45.5 19h-112q-26 0 -45 -18t-19 -45v-399zM385 1536v145h123v-145h-123z" />
    <glyph glyph-name="uni04DB" unicode="&#x4db;" horiz-adv-x="649" 
d="M72 193v172h127v-175q0 -25 18 -44t45 -19h125q26 0 45 18t19 45v338h-379v387q0 77 55.5 134t134.5 57h125q77 0 134 -56t57 -135v-722q0 -76 -56.5 -134.5t-134.5 -58.5h-125q-77 0 -133.5 57t-56.5 136zM133 1288v146h125v-146h-125zM199 655h252v258q0 25 -18.5 44.5
t-45.5 19.5h-125q-25 0 -44 -18.5t-19 -45.5v-258zM373 1288v146h123v-146h-123z" />
    <glyph glyph-name="uni04DC" unicode="&#x4dc;" horiz-adv-x="942" 
d="M31 0l205 713q-54 23 -84.5 72.5t-30.5 109.5v332q0 28 -19.5 49t-48.5 22h-22v136h22q86 0 144.5 -61t58.5 -146v-318q0 -47 31 -78.5t78 -31.5h38v635h136v-635h39q47 0 76.5 31t29.5 77v320q0 85 60 146t145 61h22v-136h-22q-28 -2 -49 -23t-21 -48v-332
q0 -61 -30 -111t-84 -71l206 -713h-149l-187 674h-36v-674h-136v674h-36l-189 -674h-147zM291 1536v145h125v-145h-125zM530 1536v145h123v-145h-123z" />
    <glyph glyph-name="uni04DD" unicode="&#x4dd;" horiz-adv-x="964" 
d="M31 0l227 518q-58 25 -91.5 76.5t-33.5 116.5v202q0 31 -22.5 52.5t-53.5 21.5h-24v129h24q83 0 143 -60t60 -143v-200q0 -35 25.5 -60.5t60.5 -25.5h72v479h129v-479h71q35 0 61 25.5t26 60.5v200q0 83 59.5 143t142.5 60h27v-129h-27q-31 0 -53.5 -21.5t-22.5 -52.5
v-202q0 -64 -33 -115t-89 -78l225 -518h-135l-219 500h-33v-500h-129v500h-33l-219 -500h-135zM301 1288v146h125v-146h-125zM541 1288v146h123v-146h-123z" />
    <glyph glyph-name="uni04DE" unicode="&#x4de;" horiz-adv-x="595" 
d="M51 193v219h135v-219q0 -23 17.5 -40.5t40.5 -17.5h78q24 0 40.5 17t16.5 41v413q0 58 -28 81.5t-85 23.5h-67v125h67q54 0 83.5 38.5t29.5 96.5v270q0 24 -16.5 40.5t-40.5 16.5h-78q-24 0 -41 -16.5t-17 -40.5v-160h-135v160q0 79 57.5 136t135.5 57h78
q79 0 135.5 -56.5t56.5 -136.5v-272q0 -62 -27.5 -111.5t-80.5 -71.5q51 -19 79.5 -60.5t28.5 -96.5v-436q0 -78 -56.5 -135.5t-135.5 -57.5h-78q-78 0 -135.5 57t-57.5 136zM102 1536v145h125v-145h-125zM342 1536v145h123v-145h-123z" />
    <glyph glyph-name="uni04DF" unicode="&#x4df;" horiz-adv-x="616" 
d="M72 190v175h129v-175q0 -26 18.5 -44.5t44.5 -18.5h90q26 0 45 18.5t19 44.5v222q0 62 -30.5 89t-90.5 27h-96v127h84q58 0 95.5 43t37.5 103v112q0 26 -19 45t-45 19h-90q-27 0 -45 -18.5t-18 -45.5v-106h-129v108q0 78 56.5 134.5t135.5 56.5h90q78 0 134.5 -56.5
t56.5 -134.5v-143q0 -125 -107 -180q107 -32 107 -139v-263q0 -78 -56.5 -134t-134.5 -56h-90q-79 0 -135.5 56t-56.5 134zM127 1288v146h125v-146h-125zM367 1288v146h122v-146h-122z" />
    <glyph glyph-name="uni04E2" unicode="&#x4e2;" horiz-adv-x="741" 
d="M82 0v1434h135v-652l-39 -530l15 -4l284 1186h182v-1434h-135v651l39 510l-14 4l-283 -1165h-184zM170 1563v104h391v-104h-391z" />
    <glyph glyph-name="uni04E3" unicode="&#x4e3;" horiz-adv-x="733" 
d="M72 0v1106h127v-516l-33 -463l319 979h177v-1106h-127v455l32 522l-319 -977h-176zM166 1329v105h391v-105h-391z" />
    <glyph glyph-name="uni04E4" unicode="&#x4e4;" horiz-adv-x="741" 
d="M82 0v1434h135v-652l-39 -530l15 -4l284 1186h182v-1434h-135v651l39 510l-14 4l-283 -1165h-184zM184 1536v145h125v-145h-125zM424 1536v145h123v-145h-123z" />
    <glyph glyph-name="uni04E5" unicode="&#x4e5;" horiz-adv-x="733" 
d="M72 0v1106h127v-516l-33 -463l319 979h177v-1106h-127v455l32 522l-319 -977h-176zM180 1288v146h125v-146h-125zM420 1288v146h123v-146h-123z" />
    <glyph glyph-name="uni04E6" unicode="&#x4e6;" horiz-adv-x="684" 
d="M82 193v1048q0 79 57 136t135 57h136q79 0 135.5 -56.5t56.5 -136.5v-1048q0 -80 -56.5 -136.5t-135.5 -56.5h-136q-78 0 -135 57t-57 136zM162 1536v145h125v-145h-125zM217 193q0 -25 16.5 -41.5t40.5 -16.5h136q24 0 40.5 16.5t16.5 41.5v1048q0 23 -17 40t-40 17
h-136q-23 0 -40 -17t-17 -40v-1048zM401 1536v145h123v-145h-123z" />
    <glyph glyph-name="uni04E7" unicode="&#x4e7;" horiz-adv-x="671" 
d="M72 190v723q0 79 55.5 136t134.5 57h148q78 0 134 -57t56 -136v-723q0 -78 -55.5 -134t-134.5 -56h-148q-79 0 -134.5 56t-55.5 134zM156 1288v146h125v-146h-125zM199 190q0 -26 18.5 -44.5t44.5 -18.5h148q26 0 44.5 18.5t18.5 44.5v723q0 26 -18.5 45t-44.5 19h-148
q-26 0 -44.5 -19t-18.5 -45v-723zM395 1288v146h123v-146h-123z" />
    <glyph glyph-name="uni04E8" unicode="&#x4e8;" horiz-adv-x="684" 
d="M82 193v1048q0 79 57 136t135 57h136q79 0 135.5 -56.5t56.5 -136.5v-1048q0 -80 -56.5 -136.5t-135.5 -56.5h-136q-78 0 -135 57t-57 136zM217 193q0 -25 16.5 -41.5t40.5 -16.5h136q24 0 40.5 16.5t16.5 41.5v518h-250v-518zM217 836h250v405q0 23 -17 40t-40 17h-136
q-23 0 -40 -17t-17 -40v-405z" />
    <glyph glyph-name="uni04E9" unicode="&#x4e9;" horiz-adv-x="675" 
d="M72 190v723q0 78 56.5 135.5t135.5 57.5h148q78 0 135 -57t57 -136v-723q0 -78 -56.5 -134t-135.5 -56h-148q-79 0 -135.5 56t-56.5 134zM201 190q0 -26 18.5 -44.5t44.5 -18.5h148q26 0 44.5 18.5t18.5 44.5v338h-274v-338zM201 655h274v258q0 26 -18.5 45t-44.5 19
h-148q-26 0 -44.5 -19t-18.5 -45v-258z" />
    <glyph glyph-name="uni04EA" unicode="&#x4ea;" horiz-adv-x="684" 
d="M82 193v1048q0 79 57 136t135 57h136q79 0 135.5 -56.5t56.5 -136.5v-1048q0 -80 -56.5 -136.5t-135.5 -56.5h-136q-78 0 -135 57t-57 136zM162 1536v145h125v-145h-125zM217 193q0 -25 16.5 -41.5t40.5 -16.5h136q24 0 40.5 16.5t16.5 41.5v518h-250v-518zM217 836h250
v405q0 23 -17 40t-40 17h-136q-23 0 -40 -17t-17 -40v-405zM401 1536v145h123v-145h-123z" />
    <glyph glyph-name="uni04EB" unicode="&#x4eb;" horiz-adv-x="675" 
d="M72 190v723q0 78 56.5 135.5t135.5 57.5h148q78 0 135 -57t57 -136v-723q0 -78 -56.5 -134t-135.5 -56h-148q-79 0 -135.5 56t-56.5 134zM158 1288v146h125v-146h-125zM201 190q0 -26 18.5 -44.5t44.5 -18.5h148q26 0 44.5 18.5t18.5 44.5v338h-274v-338zM201 655h274
v258q0 26 -18.5 45t-44.5 19h-148q-26 0 -44.5 -19t-18.5 -45v-258zM397 1288v146h123v-146h-123z" />
    <glyph glyph-name="uni04EC" unicode="&#x4ec;" horiz-adv-x="567" 
d="M41 193v219h135v-219q0 -23 17 -40.5t40 -17.5h60q23 0 40 17.5t17 40.5v518h-164v125h164v405q0 24 -16.5 40.5t-40.5 16.5h-60q-24 0 -40.5 -16.5t-16.5 -40.5v-160h-135v160q0 80 56.5 136.5t135.5 56.5h60q78 0 135 -57t57 -136v-1048q0 -79 -57 -136t-135 -57h-60
q-79 0 -135.5 56.5t-56.5 136.5zM82 1536v145h125v-145h-125zM322 1536v145h122v-145h-122z" />
    <glyph glyph-name="uni04ED" unicode="&#x4ed;" horiz-adv-x="595" 
d="M72 190v175h127v-175q0 -26 18.5 -44.5t44.5 -18.5h70q28 0 46.5 18.5t18.5 44.5v338h-198v127h198v258q0 27 -18.5 45.5t-46.5 18.5h-70q-26 0 -44.5 -19t-18.5 -45v-106h-127v108q0 78 56 134.5t134 56.5h70q79 0 135.5 -56.5t56.5 -134.5v-725q0 -78 -56.5 -134
t-135.5 -56h-70q-78 0 -134 56t-56 134zM117 1288v146h125v-146h-125zM356 1288v146h123v-146h-123z" />
    <glyph glyph-name="uni04EE" unicode="&#x4ee;" horiz-adv-x="608" 
d="M31 1434h137l143 -887h27l102 887h138l-166 -1434h-138l50 412h-125zM139 1563v104h391v-104h-391z" />
    <glyph glyph-name="uni04EF" unicode="&#x4ef;" horiz-adv-x="604" 
d="M20 1106h130l145 -979h18l131 979h129l-196 -1423h-129l45 317h-109zM104 1329v105h392v-105h-392z" />
    <glyph glyph-name="uni04F0" unicode="&#x4f0;" horiz-adv-x="608" 
d="M31 1434h137l143 -887h27l102 887h138l-166 -1434h-138l50 412h-125zM154 1536v145h125v-145h-125zM393 1536v145h123v-145h-123z" />
    <glyph glyph-name="uni04F1" unicode="&#x4f1;" horiz-adv-x="604" 
d="M20 1106h130l145 -979h18l131 979h129l-196 -1423h-129l45 317h-109zM119 1288v146h125v-146h-125zM358 1288v146h123v-146h-123z" />
    <glyph glyph-name="uni04F2" unicode="&#x4f2;" horiz-adv-x="608" 
d="M31 1434h137l143 -887h27l102 887h138l-166 -1434h-138l50 412h-125zM133 1614l182 135l62 -78l-182 -135zM375 1614l182 135l61 -78l-182 -135z" />
    <glyph glyph-name="uni04F3" unicode="&#x4f3;" horiz-adv-x="604" 
d="M20 1106l164 -1106h109l-45 -317h129l196 1423h-129l-131 -979h-18l-145 979h-130zM106 1298l183 136l61 -78l-182 -135zM348 1298l182 136l62 -78l-182 -135z" />
    <glyph glyph-name="uni04F4" unicode="&#x4f4;" horiz-adv-x="681" 
d="M82 776v658h135v-666q0 -23 17 -40t40 -17h191v723h135v-1434h-135v584h-191q-80 0 -136 56t-56 136zM160 1536v145h125v-145h-125zM399 1536v145h123v-145h-123z" />
    <glyph glyph-name="uni04F5" unicode="&#x4f5;" horiz-adv-x="671" 
d="M72 604v502h127v-524q0 -22 15.5 -38t37.5 -16h219v578h129v-1106h-129v401h-197q-85 0 -143.5 59t-58.5 144zM156 1288v146h125v-146h-125zM395 1288v146h123v-146h-123z" />
    <glyph glyph-name="uni04F8" unicode="&#x4f8;" horiz-adv-x="950" 
d="M82 0v1434h135v-473h189q83 0 137.5 -56.5t54.5 -136.5v-575q0 -80 -56.5 -136.5t-135.5 -56.5h-324zM217 135h189q24 0 40.5 17t16.5 41v585q0 24 -16.5 41t-40.5 17h-189v-701zM281 1536v145h125v-145h-125zM520 1536v145h123v-145h-123zM733 0v1434h135v-1434h-135z
" />
    <glyph glyph-name="uni04F9" unicode="&#x4f9;" horiz-adv-x="905" 
d="M72 0v1106h129v-324h172q84 0 143 -59t59 -143v-377q0 -83 -59.5 -143t-142.5 -60h-301zM201 127h192q22 0 37.5 15.5t15.5 37.5v422q0 22 -15.5 37.5t-37.5 15.5h-192v-528zM279 1288v146h124v-146h-124zM518 1288v146h123v-146h-123zM705 0v1106h129v-1106h-129z" />
    <glyph glyph-name="uni2000" unicode="&#x2000;" horiz-adv-x="874" 
 />
    <glyph glyph-name="uni2001" unicode="&#x2001;" horiz-adv-x="1749" 
 />
    <glyph glyph-name="uni2002" unicode="&#x2002;" horiz-adv-x="874" 
 />
    <glyph glyph-name="uni2003" unicode="&#x2003;" horiz-adv-x="1749" 
 />
    <glyph glyph-name="uni2004" unicode="&#x2004;" horiz-adv-x="583" 
 />
    <glyph glyph-name="uni2005" unicode="&#x2005;" horiz-adv-x="437" 
 />
    <glyph glyph-name="uni2006" unicode="&#x2006;" horiz-adv-x="291" 
 />
    <glyph glyph-name="uni2007" unicode="&#x2007;" horiz-adv-x="291" 
 />
    <glyph glyph-name="uni2008" unicode="&#x2008;" horiz-adv-x="218" 
 />
    <glyph glyph-name="uni2009" unicode="&#x2009;" horiz-adv-x="349" 
 />
    <glyph glyph-name="uni200A" unicode="&#x200a;" horiz-adv-x="97" 
 />
    <glyph glyph-name="uni2010" unicode="&#x2010;" horiz-adv-x="526" 
d="M61 549v110h404v-110h-404z" />
    <glyph glyph-name="uni2011" unicode="&#x2011;" horiz-adv-x="526" 
d="M61 549v110h404v-110h-404z" />
    <glyph glyph-name="figuredash" unicode="&#x2012;" horiz-adv-x="526" 
d="M61 549v110h404v-110h-404z" />
    <glyph glyph-name="endash" unicode="&#x2013;" horiz-adv-x="899" 
d="M61 606v111h777v-111h-777z" />
    <glyph glyph-name="emdash" unicode="&#x2014;" horiz-adv-x="1062" 
d="M61 606v111h940v-111h-940z" />
    <glyph glyph-name="quoteleft" unicode="&#x2018;" horiz-adv-x="268" 
d="M61 1067v145l99 222h47l-53 -222h53v-145h-146z" />
    <glyph glyph-name="quoteright" unicode="&#x2019;" horiz-adv-x="268" 
d="M61 1067l54 221h-54v146h146v-146l-98 -221h-48z" />
    <glyph glyph-name="quotesinglbase" unicode="&#x201a;" horiz-adv-x="245" 
d="M61 0v145h123v-145l-75 -221h-48l45 221h-45z" />
    <glyph glyph-name="quotedblleft" unicode="&#x201c;" horiz-adv-x="512" 
d="M61 1067v145l99 222h47l-53 -222h53v-145h-146zM305 1067v145l98 222h48l-54 -222h54v-145h-146z" />
    <glyph glyph-name="quotedblright" unicode="&#x201d;" horiz-adv-x="512" 
d="M61 1067l54 221h-54v146h146v-146l-98 -221h-48zM305 1067l53 221h-53v146h146v-146l-99 -221h-47z" />
    <glyph glyph-name="quotedblbase" unicode="&#x201e;" horiz-adv-x="534" 
d="M61 0v145h146v-145l-98 -221h-48l54 221h-54zM328 0v145h145v-145l-98 -221h-47l53 221h-53z" />
    <glyph glyph-name="bullet" unicode="&#x2022;" horiz-adv-x="483" 
d="M61 782q0 75 53 128t128 53t127.5 -53t52.5 -128q0 -72 -53 -125t-127 -53q-75 0 -128 53t-53 125z" />
    <glyph glyph-name="ellipsis" unicode="&#x2026;" horiz-adv-x="937" 
d="M61 0v145h146v-145h-146zM399 0v145h146v-145h-146zM731 0v145h146v-145h-146z" />
    <glyph glyph-name="uni202F" unicode="&#x202f;" horiz-adv-x="349" 
 />
    <glyph glyph-name="guilsinglleft" unicode="&#x2039;" horiz-adv-x="403" 
d="M61 553l189 414h92l-137 -414l137 -416h-92z" />
    <glyph glyph-name="guilsinglright" unicode="&#x203a;" horiz-adv-x="403" 
d="M61 137l138 416l-138 414h93l188 -414l-188 -416h-93z" />
    <glyph glyph-name="uni205F" unicode="&#x205f;" horiz-adv-x="437" 
 />
    <glyph glyph-name="Euro" unicode="&#x20ac;" horiz-adv-x="671" 
d="M61 561v113h121v133h-121v113h121v327q0 77 55 132t132 55h55q76 0 131 -55t55 -132v-166h-123v166q0 26 -18.5 45t-44.5 19h-55q-26 0 -45 -19t-19 -45v-327h182v-113h-182v-133h182v-113h-182v-373q0 -26 19 -44.5t45 -18.5h55q26 0 44.5 18.5t18.5 44.5v224h123v-224
q0 -78 -54.5 -133t-131.5 -55h-55q-77 0 -132 55t-55 133v373h-121z" />
    <glyph glyph-name="trademark" unicode="&#x2122;" horiz-adv-x="727" 
d="M61 1374v60h211v-60h-73v-565h-64v565h-74zM330 809v625h88l80 -531l80 531h88v-625h-64v164l21 377l-93 -541h-67l-90 541l20 -377v-164h-63z" />
    <glyph glyph-name="uniE000" unicode="&#xe000;" horiz-adv-x="1105" 
d="M0 0v1106h1106v-1106h-1106z" />
    </font>
</defs>
</svg>
